<svg width="54" height="45" viewBox="0 0 54 45" fill="none" xmlns="http://www.w3.org/2000/svg">
<g clip-path="url(#clip0_429_57)">
<path fill-rule="evenodd" clip-rule="evenodd" d="M1.46777 0H52.5322C53.3408 0 54 0.655188 54 1.45889V35.0832C54 35.8869 53.3408 36.542 52.5322 36.542H1.46777C0.65918 36.542 0 35.8869 0 35.0832V1.45889C0 0.655188 0.65918 0 1.46777 0ZM40.2451 12.2171L44.8594 12.2302C44.855 13.4532 44.3584 14.6238 43.4839 15.4843C43.2773 15.6852 43.0488 15.8687 42.8071 16.0303L40.2451 12.2171ZM13.6802 8.61354H15.0864C15.1611 8.61354 15.2227 8.6747 15.2227 8.74895V13.7284C15.2227 13.8026 15.1611 13.8638 15.0864 13.8638H13.6802C13.6055 13.8638 13.5439 13.8026 13.5439 13.7284V8.74895C13.5439 8.6747 13.6055 8.61354 13.6802 8.61354ZM7.31689 6.93189H8.72314C8.79785 6.93189 8.85937 6.99305 8.85937 7.0673V13.7328C8.85937 13.807 8.79785 13.8682 8.72314 13.8682H7.31689C7.24219 13.8682 7.18066 13.807 7.18066 13.7328V7.0673C7.18066 6.99305 7.24219 6.93189 7.31689 6.93189ZM10.4985 5.98405H11.9048C11.9795 5.98405 12.041 6.04521 12.041 6.11946V13.7328C12.041 13.807 11.9795 13.8682 11.9048 13.8682H10.4985C10.4238 13.8682 10.3623 13.807 10.3623 13.7328V6.11946C10.3623 6.04521 10.4238 5.98405 10.4985 5.98405ZM7.40039 26.8059C7.09277 26.8059 6.84668 26.557 6.84668 26.2469C6.84668 25.9411 7.09717 25.6878 7.40039 25.6878H46.6919C46.9995 25.6878 47.2456 25.9367 47.2456 26.2469C47.2456 26.5526 46.9951 26.8059 46.6919 26.8059H7.40039ZM7.30811 22.7438C7.00049 22.7438 6.75439 22.4948 6.75439 22.1847C6.75439 21.8789 7.00488 21.6256 7.30811 21.6256H23.0625C23.3701 21.6256 23.6162 21.8746 23.6162 22.1847C23.6162 22.4904 23.3657 22.7438 23.0625 22.7438H7.30811ZM25.2246 22.7438C24.917 22.7438 24.6709 22.4948 24.6709 22.1847C24.6709 21.8789 24.9214 21.6256 25.2246 21.6256H46.6919C46.9995 21.6256 47.2456 21.8746 47.2456 22.1847C47.2456 22.4904 46.9951 22.7438 46.6919 22.7438H25.2246ZM7.30811 19.114C7.00049 19.114 6.75439 18.8651 6.75439 18.5549C6.75439 18.2492 7.00488 17.9958 7.30811 17.9958H31.1089C31.4165 17.9958 31.6626 18.2448 31.6626 18.5549C31.6626 18.8607 31.4121 19.114 31.1089 19.114H7.30811ZM39.7705 11.3042L39.5244 6.39901C39.52 6.30291 39.5947 6.21992 39.6914 6.21555C39.7178 6.21555 39.7529 6.21119 39.7925 6.21119C39.8232 6.21119 39.8584 6.21119 39.8936 6.21119C41.2471 6.19808 42.4951 6.70476 43.4224 7.55651C44.354 8.40825 44.9648 9.59633 45.0615 10.9416C45.0703 11.0377 44.9956 11.1207 44.8989 11.1295L39.9639 11.4789C39.8672 11.4876 39.7837 11.4134 39.7749 11.3173C39.7705 11.3129 39.7705 11.3086 39.7705 11.3042ZM39.8848 6.56062L40.1133 11.1164L44.6924 10.7931C44.5649 9.6138 44.0068 8.56987 43.1807 7.81858C42.3149 7.02799 41.1548 6.55188 39.8936 6.56499L39.8848 6.56062ZM39.2168 12.0031L41.6909 16.2618C40.9395 16.6942 40.0869 16.9213 39.2168 16.9213C36.4834 16.9213 34.2686 14.7199 34.2686 12.0031C34.2686 9.56138 36.0703 7.49099 38.5005 7.13719L39.2168 12.0031ZM20.3423 38.5557H33.6577C33.6929 40.8444 34.6421 42.8974 37.2129 44.5091H16.7871C18.8438 43.0284 20.3511 41.2288 20.3423 38.5557ZM27 31.6281C28.0415 31.6281 28.8853 32.4668 28.8853 33.502C28.8853 34.5372 28.0415 35.3758 27 35.3758C25.9585 35.3758 25.1147 34.5372 25.1147 33.502C25.1147 32.4668 25.9585 31.6281 27 31.6281ZM4.4165 2.74742H49.5879C50.3042 2.74742 50.8843 3.32836 50.8843 4.03596V29.1603C50.8843 29.8679 50.2998 30.4488 49.5879 30.4488H4.4165C3.70459 30.4488 3.12012 29.8679 3.12012 29.1603V4.03596C3.11572 3.32836 3.7002 2.74742 4.4165 2.74742Z" fill="white"/>
</g>
<defs>
<clipPath id="clip0_429_57">
<rect width="54" height="44.5135" fill="white"/>
</clipPath>
</defs>
</svg>
