<svg width="54" height="53" viewBox="0 0 54 53" fill="none" xmlns="http://www.w3.org/2000/svg">
<g clip-path="url(#clip0_207_509)">
<path fill-rule="evenodd" clip-rule="evenodd" d="M5.22949 17.9566H49.0913V19.2167H5.22949V17.9566ZM39.3354 36.4234V49.9163H36.2109V47.8309H17.7891V49.9163H14.6646V36.4234H13.5879V34.3468H16.2158L17.6792 29.7457C18.1099 28.3924 18.8306 27.1589 20.2412 27.1589H34.2949C35.7056 27.1589 36.5186 28.3658 36.8569 29.7457L37.9907 34.3468H40.4077V36.4234H39.3354ZM22.3198 43.669H31.5483V45.8653H22.3198V43.669ZM15.7104 38.5531C18.0615 38.6285 19.4985 39.6224 19.8677 41.6945H15.7104V38.5531ZM37.9951 38.5531C35.644 38.6285 34.207 39.6224 33.8379 41.6945H37.9951V38.5531ZM17.3408 34.3513H36.6636L35.8374 30.4911C35.6089 29.4306 34.9585 28.5211 33.8862 28.5211H20.5181C19.4458 28.5211 18.8921 29.4617 18.5669 30.4911L17.3408 34.3513ZM49.0913 21.3642V50.8525H5.22949V21.3642H49.0913ZM3.10254 18.9859H1.06348H0V17.9122V12.6188V11.9267L0.632812 11.6427L25.9805 0.195228L26.4111 0L26.8374 0.190791L53.3628 12.0686L54 12.3526V13.0492V17.9077V18.9815H52.9365H51.2183V51.9218V52.9956H50.1548H4.16602H3.10254V51.9218V18.9859Z" fill="white"/>
</g>
<defs>
<clipPath id="clip0_207_509">
<rect width="54" height="53" fill="white"/>
</clipPath>
</defs>
</svg>
