<svg width="40" height="40" viewBox="0 0 40 40" fill="none" xmlns="http://www.w3.org/2000/svg">
<g id="checkmark-shield-fill-svgrepo-com 3">
<path id="Vector" d="M19.9916 36.6407C20.2595 36.6407 20.678 36.5402 21.1133 36.3226C30.4716 31.0492 33.7026 28.8393 33.7026 22.8292V10.2065C33.7026 8.48216 32.9492 7.92973 31.5597 7.3438C29.601 6.54016 23.3231 4.28016 21.3811 3.5938C20.9291 3.45987 20.4771 3.35938 19.9916 3.35938C19.5229 3.35938 19.0709 3.45987 18.6189 3.5938C16.6769 4.29687 10.399 6.55695 8.44028 7.3438C7.05078 7.91295 6.29742 8.48216 6.29742 10.2065V22.8292C6.29742 28.8393 9.54521 31.0324 18.8867 36.3226C19.322 36.5402 19.7238 36.6407 19.9916 36.6407ZM17.7149 28.1362C17.1456 28.1362 16.6936 27.8851 16.2249 27.3159L11.4035 21.356C11.1524 21.0379 11.0017 20.6362 11.0017 20.2679C11.0017 19.481 11.6044 18.8784 12.3577 18.8784C12.8264 18.8784 13.2449 19.0625 13.6468 19.5815L17.6479 24.7544L25.4157 12.2824C25.7506 11.7634 26.1859 11.5123 26.6211 11.5123C27.3577 11.5123 28.0608 11.9978 28.0608 12.8014C28.0608 13.1697 27.8599 13.5714 27.6423 13.9062L19.1211 27.3159C18.7695 27.8683 18.284 28.1362 17.7149 28.1362Z" fill="#009F62"/>
</g>
</svg>
