<svg width="54" height="53" viewBox="0 0 54 53" fill="none" xmlns="http://www.w3.org/2000/svg">
<g clip-path="url(#clip0_207_485)">
<path d="M19.5952 37.2827C22.5747 43.5955 31.6143 43.8055 34.44 37.2782C33.6314 36.3981 32.8931 35.3527 32.2339 34.4189L32.2163 34.3966C30.8409 35.509 29.1753 36.2149 27 36.2105C24.6577 36.206 22.8911 35.2946 21.4453 33.9498C21.3575 33.8694 21.274 33.789 21.1905 33.7041C20.9839 34.2894 20.7202 34.9908 20.439 35.6431C20.1709 36.2685 19.8765 36.8583 19.5952 37.2827ZM35.4507 36.751C38.7334 38.9179 46.2041 39.4808 49.1089 41.1249C50.0933 41.6834 50.981 42.3937 51.6973 43.3543C53.187 45.3558 56.2369 52.6202 51.293 53.0044H41.9942L43.1368 39.9946C40.7329 39.5165 38.1709 38.9313 35.5166 37.4435C35.376 37.4435 35.3233 37.5061 35.1167 37.6937C33.2666 44.8733 21.92 45.9276 18.7647 37.5329C16.2906 38.8017 13.7681 39.5255 10.8897 39.9767L12.6826 53.0089H2.71146C-2.23239 52.6247 0.817412 45.3602 2.30716 43.3587C3.02347 42.3982 3.91116 41.6878 4.89554 41.1294C7.84427 39.4495 15.5259 38.9 18.7163 36.6349C18.9492 36.2775 19.2041 35.7547 19.4458 35.1918C19.8106 34.343 20.1446 33.4137 20.3599 32.7793C19.4678 31.7115 18.7032 30.5052 17.9693 29.3213L15.6358 25.5461C15.4688 25.5327 15.3018 25.497 15.1304 25.4478C13.2276 24.8402 11.6411 20.5334 11.9532 18.5006C12.1289 17.3479 12.5332 16.9324 13.1792 16.6823C13.1485 16.5884 13.1309 16.4901 13.1309 16.3829V12.0403C13.1309 10.4096 13.6143 8.80575 14.3921 7.34929C15.2491 5.75433 16.4663 4.33361 17.7979 3.25243C20.5181 1.0588 24.0425 -0.0402431 27.5493 -3.40299e-05C31.0254 0.0357074 34.4927 1.19283 37.1426 3.48028C38.4214 4.5838 39.5025 6.03132 40.2539 7.63075C40.9878 9.18997 41.4141 10.8966 41.4141 12.572V16.1551C41.4141 16.6644 41.0098 17.0754 40.5088 17.0754C40.0078 17.0754 39.6035 16.6644 39.6035 16.1551V12.572C39.6035 11.1691 39.2432 9.73502 38.628 8.42153C37.9864 7.05442 37.0635 5.82134 35.9737 4.88313C33.649 2.87715 30.5992 1.86745 27.5318 1.83618C24.4248 1.80044 21.3135 2.76546 18.9229 4.70443C17.7671 5.64264 16.7124 6.86678 15.9742 8.23835C15.3369 9.43122 14.9414 10.7358 14.9414 12.0493V16.1953L14.9678 16.1863L15.7149 17.129C15.6534 15.5117 15.649 13.7872 15.7193 12.2637C15.772 11.7321 15.8687 11.2049 16.0181 10.6732C16.6333 8.43046 18.1846 6.62552 20.1006 5.38351C25.062 2.17126 32.2779 2.62696 36.3868 7.14377C37.7271 8.61811 38.5708 10.5749 38.751 13.1662L38.6016 19.5416C39.2696 19.7471 39.7002 20.1804 39.876 20.8819C40.0694 21.6548 39.8584 22.7494 39.2124 24.2371C39.1993 24.2639 39.1861 24.2907 39.1729 24.3175L36.4175 28.9281C35.4068 30.6214 34.3785 32.3191 33.0425 33.6594L33.126 33.7756C33.8247 34.7674 34.6201 35.8932 35.4507 36.751ZM16.9761 20.4351L18.0396 23.4016C18.1538 23.7412 18.189 24.0405 18.1407 24.2952L18.1494 24.2862C19.8018 26.1448 21.8365 27.4896 24.2798 28.2848C24.4029 27.9989 24.5743 27.7442 24.8247 27.5476C25.5718 26.9624 27.7559 27.016 28.4326 27.5834C28.9995 28.0614 29.0083 29.1515 28.5865 29.7234C27.7119 30.9118 24.0777 29.911 22.8604 29.5134C20.8828 28.8701 19.0899 27.293 17.4595 25.9035L19.1162 28.5797C20.0874 30.1478 21.1026 31.7428 22.3638 32.9178C23.5767 34.0481 25.0489 34.8076 27 34.8165C29.1094 34.821 30.6519 34.0258 31.9043 32.8374C33.2051 31.5998 34.2334 29.8976 35.2486 28.2044L37.9688 23.6474C38.4742 22.4724 38.6631 21.6816 38.5445 21.2214C38.4742 20.9444 38.1753 20.8104 37.67 20.788C37.5601 20.7836 37.4502 20.7836 37.3404 20.7836C37.2173 20.788 37.0899 20.797 36.958 20.8104C36.8877 20.8149 36.8174 20.8104 36.7471 20.797C36.5054 20.8104 36.2549 20.7925 36 20.7568L36.9317 16.5616C30.0147 17.6696 24.8423 12.4469 17.5298 15.5162L18.0572 20.4619C17.7627 20.4753 17.4815 20.4664 17.2222 20.4262C17.1387 20.4217 17.0552 20.4306 16.9761 20.4351Z" fill="white"/>
</g>
<defs>
<clipPath id="clip0_207_485">
<rect width="54" height="53" fill="white"/>
</clipPath>
</defs>
</svg>
