<svg width="52" height="52" viewBox="0 0 52 52" fill="none" xmlns="http://www.w3.org/2000/svg">
<g clip-path="url(#clip0_454_45)">
<path d="M7.58334 26C7.61584 26 7.644 25.9913 7.67434 25.9913L9.711 35.1477C8.89693 35.5086 8.18455 36.0649 7.63706 36.7672C7.08957 37.4696 6.72391 38.2962 6.57251 39.1737C6.42112 40.0512 6.48869 40.9526 6.76921 41.7977C7.04973 42.6429 7.53453 43.4058 8.18061 44.0186C8.82668 44.6315 9.61404 45.0754 10.4728 45.3109C11.3316 45.5465 12.2353 45.5664 13.1036 45.3689C13.9719 45.1715 14.7781 44.7627 15.4506 44.179C16.123 43.5952 16.641 42.8545 16.9585 42.0225L32.5195 44.616C32.5563 45.5754 32.8484 46.5076 33.3656 47.3165C33.8828 48.1254 34.6064 48.7817 35.4618 49.2177C36.3172 49.6537 37.2734 49.8536 38.2318 49.7968C39.1903 49.74 40.1162 49.4286 40.9141 48.8947C41.7121 48.3608 42.3532 47.6237 42.7713 46.7594C43.1893 45.8951 43.3693 44.9349 43.2926 43.9779C43.2159 43.0208 42.8853 42.1016 42.3349 41.3149C41.7844 40.5283 41.0341 39.9027 40.1613 39.5027L44.2823 21.6537C44.3278 21.6537 44.369 21.6667 44.4167 21.6667C45.3463 21.6691 46.2608 21.4322 47.0724 20.9789C47.8839 20.5256 48.5652 19.871 49.0505 19.0782C49.5359 18.2854 49.809 17.381 49.8437 16.4521C49.8784 15.5231 49.6734 14.6009 49.2485 13.7741C48.8236 12.9473 48.1931 12.2438 47.4176 11.7312C46.6421 11.2186 45.7477 10.9143 44.8205 10.8474C43.8933 10.7805 42.9645 10.9534 42.1235 11.3493C41.2825 11.7453 40.5575 12.3511 40.0183 13.1083L30.2033 8.749C30.3947 7.90597 30.3815 7.02939 30.1648 6.19251C29.9482 5.35563 29.5344 4.58276 28.958 3.93848C28.3817 3.2942 27.6594 2.79722 26.8518 2.48909C26.0441 2.18096 25.1744 2.07062 24.3153 2.16729C23.4563 2.26396 22.6328 2.56484 21.9138 3.04477C21.1948 3.5247 20.6011 4.16975 20.1824 4.92602C19.7636 5.68228 19.5319 6.5278 19.5067 7.3919C19.4815 8.256 19.6634 9.11359 20.0373 9.893L11.1605 16.5468C10.5051 15.9665 9.71857 15.5541 8.86854 15.3449C8.0185 15.1357 7.13039 15.1361 6.28054 15.3461C5.4307 15.556 4.64455 15.9692 3.98967 16.5501C3.33479 17.131 2.83078 17.8622 2.52097 18.6809C2.21115 19.4997 2.1048 20.3814 2.21105 21.2503C2.31731 22.1192 2.63299 22.9494 3.13096 23.6693C3.62893 24.3893 4.29429 24.9775 5.06984 25.3835C5.8454 25.7895 6.70795 26.001 7.58334 26ZM9.789 25.519C11.0023 24.9735 11.9735 24.0023 12.519 22.789L21.6753 24.8257C21.6753 24.856 21.6667 24.8842 21.6667 24.9167C21.6663 25.9783 21.9799 27.0163 22.568 27.9002L14.898 35.5702C14.0151 34.9816 12.9778 34.6672 11.9167 34.6667C11.8863 34.6667 11.856 34.6753 11.8257 34.6753L9.789 25.519ZM25.3543 19.8098C24.6493 20.0474 24.0008 20.4276 23.4491 20.9267C22.8974 21.4258 22.4544 22.0332 22.1477 22.711L12.9913 20.6743C12.9913 20.644 13 20.6158 13 20.5833C12.9961 19.7839 12.8132 18.9954 12.4648 18.2758L21.3395 11.6198C22.2173 12.3986 23.3262 12.8682 24.4963 12.9567L25.3543 19.8098ZM30.3333 23.8333V26C30.3333 26.5746 30.1051 27.1257 29.6987 27.5321C29.2924 27.9384 28.7413 28.1667 28.1667 28.1667H26C25.4254 28.1667 24.8743 27.9384 24.4679 27.5321C24.0616 27.1257 23.8333 26.5746 23.8333 26V23.8333C23.8333 23.2587 24.0616 22.7076 24.4679 22.3013C24.8743 21.8949 25.4254 21.6667 26 21.6667H28.1667C28.7413 21.6667 29.2924 21.8949 29.6987 22.3013C30.1051 22.7076 30.3333 23.2587 30.3333 23.8333ZM32.8748 42.4775L17.3117 39.884C17.2801 38.8924 16.9749 37.9288 16.4298 37.0998L24.0998 29.4298C24.7658 29.883 25.5278 30.1755 26.3259 30.2846C27.124 30.3936 27.9366 30.3161 28.6997 30.0582L34.4023 40.3282C33.7227 40.9072 33.1972 41.6457 32.8727 42.4775H32.8748ZM13 43.3333H10.8333C10.2587 43.3333 9.7076 43.1051 9.30127 42.6987C8.89494 42.2924 8.66667 41.7413 8.66667 41.1667V39C8.66667 38.4254 8.89494 37.8743 9.30127 37.4679C9.7076 37.0616 10.2587 36.8333 10.8333 36.8333H13C13.5746 36.8333 14.1257 37.0616 14.5321 37.4679C14.9384 37.8743 15.1667 38.4254 15.1667 39V41.1667C15.1667 41.7413 14.9384 42.2924 14.5321 42.6987C14.1257 43.1051 13.5746 43.3333 13 43.3333ZM41.1667 43.3333V45.5C41.1667 46.0746 40.9384 46.6257 40.5321 47.0321C40.1257 47.4384 39.5746 47.6667 39 47.6667H36.8333C36.2587 47.6667 35.7076 47.4384 35.3013 47.0321C34.8949 46.6257 34.6667 46.0746 34.6667 45.5V43.3333C34.6667 42.7587 34.8949 42.2076 35.3013 41.8013C35.7076 41.3949 36.2587 41.1667 36.8333 41.1667H39C39.5746 41.1667 40.1257 41.3949 40.5321 41.8013C40.9384 42.2076 41.1667 42.7587 41.1667 43.3333ZM38.051 39.013C38.0077 39.013 37.9643 39 37.9167 39C37.3662 39.0078 36.8203 39.1006 36.2982 39.2752L30.5955 29.0052C31.3828 28.357 31.9631 27.4926 32.265 26.5185C32.5668 25.5444 32.577 24.5033 32.2942 23.5235L40.1765 19.5802C40.7058 20.2589 41.3891 20.8018 42.1698 21.164L38.051 39.013ZM43.3333 13H45.5C46.0746 13 46.6257 13.2283 47.0321 13.6346C47.4384 14.0409 47.6667 14.592 47.6667 15.1667V17.3333C47.6667 17.908 47.4384 18.4591 47.0321 18.8654C46.6257 19.2717 46.0746 19.5 45.5 19.5H43.3333C42.7587 19.5 42.2076 19.2717 41.8013 18.8654C41.3949 18.4591 41.1667 17.908 41.1667 17.3333V15.1667C41.1667 14.592 41.3949 14.0409 41.8013 13.6346C42.2076 13.2283 42.7587 13 43.3333 13ZM39.1322 15.0865C38.934 15.9306 38.9594 16.8118 39.2058 17.6432L31.3235 21.5865C30.8632 20.9998 30.2859 20.5152 29.6283 20.1635C28.9707 19.8117 28.2472 19.6005 27.5037 19.5433L26.6457 12.6902C27.7185 12.3293 28.6513 11.6413 29.3128 10.7228L39.1322 15.0865ZM21.6667 8.66666V6.5C21.6667 5.92536 21.8949 5.37426 22.3013 4.96793C22.7076 4.5616 23.2587 4.33333 23.8333 4.33333H26C26.5746 4.33333 27.1257 4.5616 27.5321 4.96793C27.9384 5.37426 28.1667 5.92536 28.1667 6.5V8.66666C28.1667 9.2413 27.9384 9.7924 27.5321 10.1987C27.1257 10.6051 26.5746 10.8333 26 10.8333H23.8333C23.2587 10.8333 22.7076 10.6051 22.3013 10.1987C21.8949 9.7924 21.6667 9.2413 21.6667 8.66666ZM4.33334 19.5C4.33334 18.9254 4.56161 18.3743 4.96794 17.9679C5.37427 17.5616 5.92537 17.3333 6.5 17.3333H8.66667C9.24131 17.3333 9.7924 17.5616 10.1987 17.9679C10.6051 18.3743 10.8333 18.9254 10.8333 19.5V21.6667C10.8333 22.2413 10.6051 22.7924 10.1987 23.1987C9.7924 23.6051 9.24131 23.8333 8.66667 23.8333H6.5C5.92537 23.8333 5.37427 23.6051 4.96794 23.1987C4.56161 22.7924 4.33334 22.2413 4.33334 21.6667V19.5Z" fill="white"/>
</g>
<defs>
<clipPath id="clip0_454_45">
<rect width="52" height="52" fill="white"/>
</clipPath>
</defs>
</svg>
