<svg width="209" height="118" viewBox="0 0 209 118" fill="none" xmlns="http://www.w3.org/2000/svg">
<path fill-rule="evenodd" clip-rule="evenodd" d="M64.7443 4.43645C70.3376 1.90111 85.4852 0 103.554 0V2.81878C103.554 2.81878 73.8483 3.37314 66.5043 6.38454C63.1332 7.76686 59.5349 12.0893 56.6283 16.543C57.7775 22.1716 103.554 21.9708 103.554 21.9708C103.554 21.9708 149.308 22.1715 150.474 16.5463C147.569 12.0914 143.97 7.76721 140.593 6.38454C133.238 3.37314 103.554 2.81878 103.554 2.81878V0C121.61 0 136.771 1.90111 142.353 4.43645C147.935 6.97178 154.159 19.2476 154.159 19.2476C154.159 19.2476 157.986 18.5429 159.364 17.276C159.763 16.9094 159.752 16.3617 159.739 15.7683C159.708 14.3109 159.672 12.578 165.691 12.578C174.161 12.578 174.569 17.0849 165.691 19.8082C156.812 22.5315 156.814 23.8453 156.814 23.8453C166.61 23.8453 170.335 28.844 172.197 37.294C174.039 45.6501 175.794 58.0214 169.467 63.8422C171.405 55.5801 167.528 50.7913 158.039 55.0163C168.901 46.6132 170.742 35.252 164.773 33.7502C158.804 32.2484 137.873 44.9267 137.873 44.9267C141.133 41.4755 145.599 37.8743 149.325 34.8705C153.252 31.7042 156.356 29.2014 156.356 28.2379C156.356 27.4537 154.889 24.0374 152.645 20.1053C150.44 22.0716 121.601 22.9089 103.56 22.9089C85.4972 22.9089 56.6101 22.0695 54.4676 20.0979L54.5716 19.8999C52.2591 23.918 50.7383 27.4401 50.7383 28.2379C50.7383 29.2015 53.8423 31.7041 57.7694 34.8705C61.4949 37.8743 65.9613 41.4755 69.2214 44.9267C69.2214 44.9267 48.2888 32.2515 42.3193 33.7533C36.3497 35.2551 38.1916 46.6163 49.0538 55.0195C39.5644 50.7944 35.6854 55.5832 37.6249 63.8454C31.2964 58.0246 33.0533 45.6533 34.8999 37.294C36.7622 28.8439 40.4869 23.8453 50.2833 23.8453C50.2833 23.8453 50.2818 22.5315 41.4046 19.8082C32.5275 17.0849 32.9336 12.578 41.4046 12.578C47.4236 12.578 47.3871 14.3103 47.3564 15.7676C47.3439 16.3613 47.3323 16.9093 47.7315 17.276C49.1105 18.5429 52.9375 19.2476 52.9375 19.2476C52.9375 19.2476 59.151 6.97178 64.7443 4.43645ZM103.554 47.3555C103.554 47.3555 125.279 47.6061 132.709 45.5594C127.582 48.0242 117.171 49.5745 103.547 49.5745C89.9243 49.5745 79.5153 48.0242 74.3884 45.5594C81.8122 47.6061 103.554 47.3555 103.554 47.3555ZM134.061 53.5176C137.734 59.5264 134.877 63.6574 125.088 64.3151C115.816 64.9415 105.788 64.9697 104.741 64.9713C103.463 64.9713 91.2955 64.9369 82.0233 64.3151C72.2264 63.6574 69.3695 59.5264 73.0497 53.5176C65.0907 57.8366 57.5391 57.6488 52.8447 55.4892C54.0427 57.9948 60.8041 62.7648 67.1813 65.0653C73.3886 67.3046 87.6684 67.5051 104.648 67.5066H104.861C121.822 67.5066 133.734 67.3046 139.94 65.0653C146.318 62.7648 153.078 57.9886 154.277 55.4892C149.572 57.6488 142.02 57.8366 134.061 53.5176ZM106.992 43.3591C106.992 44.0112 105.45 44.5399 103.547 44.5399C101.645 44.5399 100.103 44.0112 100.103 43.3591C100.103 42.707 101.645 42.1783 103.547 42.1783C105.45 42.1783 106.992 42.707 106.992 43.3591Z" fill="black"/>
<path d="M3.16321 78.9926H14.9124C17.7744 78.9926 20.0338 79.1872 21.6908 79.577C23.3778 79.9668 24.5979 80.6559 25.3511 81.6448C26.1344 82.6036 26.526 83.9521 26.526 85.6905V91.2197C26.526 93.1379 26.1043 94.636 25.2607 95.7149C24.4473 96.7938 23.1368 97.5579 21.3293 98.0075C19.5518 98.457 17.1417 98.6818 14.099 98.6818H10.2127V108.167H3.16321V78.9926ZM14.6865 93.8719C16.5242 93.8719 17.8195 93.6618 18.5727 93.2425C19.3259 92.793 19.7024 92.0436 19.7024 90.9949V86.3199C19.7024 85.3611 19.3409 84.7318 18.6179 84.4319C17.925 84.1319 16.5844 83.9823 14.5961 83.9823H10.2127V93.8719H14.6865ZM44.464 108.616C43.1385 108.616 41.9485 108.557 40.8941 108.436C39.8697 108.316 38.74 108.092 37.5049 107.762C36.119 107.403 34.9743 106.938 34.0705 106.369C33.1667 105.769 32.4135 104.945 31.811 103.896C31.1784 102.848 30.8621 101.604 30.8621 100.165V87.3538C30.8621 81.4797 35.396 78.5431 44.464 78.5431C46.7837 78.5431 49.8867 78.8725 53.773 79.532V84.7915C50.2784 83.9521 47.2055 83.5328 44.5544 83.5328C43.4397 83.5328 42.5661 83.563 41.9334 83.6227C41.3309 83.6824 40.6983 83.8327 40.0355 84.0722C38.6196 84.552 37.9116 85.6154 37.9116 87.2639V99.6707C37.9116 102.308 40.3368 103.627 45.187 103.627C47.2657 103.627 50.188 103.192 53.9537 102.323V107.627C50.7303 108.287 47.567 108.616 44.464 108.616Z" fill="black"/>
<path d="M57.4072 97.3332H60.915V98.5469C61.1353 98.0075 61.5675 97.6282 62.2114 97.409C62.8553 97.1899 63.8128 97.0803 65.0837 97.0803C66.1513 97.0803 67.0071 97.1646 67.651 97.3332C68.3119 97.5017 68.8118 97.7715 69.1508 98.1423C69.4727 98.5132 69.693 98.9262 69.8117 99.3813C69.9303 99.8196 69.9896 100.426 69.9896 101.202V105.222C69.9896 106.436 69.8117 107.372 69.4558 108.029C69.0999 108.686 68.5492 109.15 67.8036 109.42C67.0749 109.689 66.0751 109.824 64.8041 109.824C63.584 109.824 62.7028 109.723 62.1606 109.521C61.6183 109.319 61.2709 108.922 61.1184 108.332V114.831H57.4072V97.3332ZM63.6603 107.523C64.389 107.523 64.9397 107.473 65.3125 107.372C65.6853 107.27 65.9395 107.093 66.0751 106.841C66.2106 106.588 66.2784 106.208 66.2784 105.703V101.177C66.2784 100.62 66.2191 100.224 66.1005 99.9882C65.9819 99.7353 65.7446 99.5667 65.3888 99.4825C65.0329 99.3982 64.4483 99.356 63.6349 99.356C62.9401 99.356 62.4063 99.415 62.0335 99.533C61.6776 99.651 61.4319 99.8365 61.2963 100.089C61.1777 100.342 61.1184 100.705 61.1184 101.177V105.703C61.1184 106.208 61.1777 106.588 61.2963 106.841C61.4319 107.093 61.6776 107.27 62.0335 107.372C62.3893 107.473 62.9316 107.523 63.6603 107.523ZM78.7944 109.824C78.0319 109.824 77.4049 109.799 76.9134 109.748C76.422 109.698 75.8967 109.597 75.3374 109.445C74.7274 109.276 74.236 109.04 73.8632 108.737C73.4903 108.417 73.1768 107.97 72.9227 107.397C72.6685 106.841 72.5414 106.166 72.5414 105.374V101.758C72.5414 100.949 72.6685 100.241 72.9227 99.6342C73.1768 99.0273 73.5073 98.5553 73.914 98.2182C74.2699 97.9316 74.7359 97.6956 75.312 97.5102C75.9051 97.3079 76.4813 97.1815 77.0405 97.1309C77.6845 97.0972 78.2691 97.0803 78.7944 97.0803C79.5739 97.0803 80.1925 97.1056 80.65 97.1562C81.1245 97.1899 81.6413 97.291 82.2006 97.4596C82.8106 97.645 83.302 97.8979 83.6749 98.2182C84.0646 98.5385 84.3951 98.9936 84.6662 99.5836C84.9204 100.19 85.0475 100.915 85.0475 101.758V105.374C85.0475 106.133 84.9204 106.798 84.6662 107.372C84.4289 107.945 84.1154 108.391 83.7257 108.712C83.3868 108.998 82.9208 109.234 82.3277 109.42C81.7515 109.588 81.1838 109.698 80.6246 109.748C80.1162 109.799 79.5062 109.824 78.7944 109.824ZM78.7944 107.523C79.4892 107.523 80.0145 107.473 80.3704 107.372C80.7263 107.254 80.972 107.077 81.1075 106.841C81.2601 106.605 81.3363 106.259 81.3363 105.804V101.177C81.3363 100.502 81.1584 100.03 80.8025 99.7606C80.4467 99.4909 79.7773 99.356 78.7944 99.356C77.8116 99.356 77.1422 99.4909 76.7863 99.7606C76.4305 100.03 76.2525 100.502 76.2525 101.177V105.804C76.2525 106.259 76.3203 106.605 76.4559 106.841C76.6084 107.077 76.8626 107.254 77.2184 107.372C77.5743 107.473 78.0996 107.523 78.7944 107.523ZM92.6675 109.824C91.2102 109.824 90.1341 109.723 89.4393 109.521C88.7445 109.302 88.2616 108.897 87.9904 108.307C87.7193 107.717 87.5837 106.798 87.5837 105.551V100.772C87.5837 99.4235 87.965 98.471 88.7276 97.9147C89.5071 97.3585 90.7611 97.0803 92.4896 97.0803C93.303 97.0803 93.9384 97.1309 94.396 97.232C94.8705 97.3163 95.2518 97.4765 95.5398 97.7125C95.8279 97.9316 96.1245 98.2603 96.4295 98.6986V91.8715H100.141V109.571H96.5566V108.181C96.2516 108.67 95.972 109.015 95.7178 109.217C95.4805 109.403 95.1416 109.546 94.701 109.647C94.2435 109.765 93.5656 109.824 92.6675 109.824ZM93.608 107.523C94.4384 107.523 95.0484 107.481 95.4382 107.397C95.8279 107.313 96.0906 107.161 96.2261 106.942C96.3617 106.706 96.4295 106.36 96.4295 105.905V100.974C96.4295 100.553 96.3532 100.233 96.2007 100.013C96.0652 99.7775 95.811 99.6089 95.4382 99.5077C95.0823 99.4066 94.54 99.356 93.8114 99.356C93.0318 99.356 92.4726 99.4066 92.1337 99.5077C91.7948 99.592 91.566 99.7522 91.4474 99.9882C91.3457 100.207 91.2949 100.578 91.2949 101.101V105.779C91.2949 106.251 91.3457 106.613 91.4474 106.866C91.566 107.102 91.7863 107.27 92.1083 107.372C92.4303 107.473 92.9302 107.523 93.608 107.523ZM109.633 109.824C108.073 109.824 106.836 109.664 105.921 109.344C105.023 109.024 104.379 108.535 103.99 107.877C103.6 107.203 103.405 106.318 103.405 105.222V91.8715H107.116V98.5469C107.336 97.9906 107.743 97.6113 108.336 97.409C108.929 97.1899 109.853 97.0803 111.107 97.0803C112.174 97.0803 113.03 97.1646 113.674 97.3332C114.335 97.5017 114.835 97.7715 115.174 98.1423C115.496 98.5132 115.716 98.9262 115.835 99.3813C115.953 99.8196 116.013 100.426 116.013 101.202V105.222C116.013 106.874 115.513 108.054 114.513 108.762C113.513 109.47 111.886 109.824 109.633 109.824ZM109.683 107.523C110.412 107.523 110.963 107.473 111.336 107.372C111.708 107.27 111.963 107.093 112.098 106.841C112.234 106.588 112.301 106.208 112.301 105.703V101.177C112.301 100.62 112.242 100.224 112.124 99.9882C112.005 99.7353 111.768 99.5667 111.412 99.4825C111.056 99.3982 110.471 99.356 109.658 99.356C108.963 99.356 108.429 99.415 108.057 99.533C107.701 99.651 107.455 99.8365 107.319 100.089C107.184 100.342 107.116 100.705 107.116 101.177V105.703C107.116 106.208 107.175 106.588 107.294 106.841C107.43 107.093 107.675 107.27 108.031 107.372C108.404 107.473 108.955 107.523 109.683 107.523ZM124.816 109.824C124.054 109.824 123.427 109.799 122.935 109.748C122.444 109.698 121.918 109.597 121.359 109.445C120.749 109.276 120.258 109.04 119.885 108.737C119.512 108.417 119.198 107.97 118.944 107.397C118.69 106.841 118.563 106.166 118.563 105.374V101.758C118.563 100.949 118.69 100.241 118.944 99.6342C119.198 99.0273 119.529 98.5553 119.936 98.2182C120.292 97.9316 120.758 97.6956 121.334 97.5102C121.927 97.3079 122.503 97.1815 123.062 97.1309C123.706 97.0972 124.291 97.0803 124.816 97.0803C125.596 97.0803 126.214 97.1056 126.672 97.1562C127.146 97.1899 127.663 97.291 128.222 97.4596C128.832 97.645 129.324 97.8979 129.697 98.2182C130.086 98.5385 130.417 98.9936 130.688 99.5836C130.942 100.19 131.069 100.915 131.069 101.758V105.374C131.069 106.133 130.942 106.798 130.688 107.372C130.451 107.945 130.137 108.391 129.747 108.712C129.408 108.998 128.942 109.234 128.349 109.42C127.773 109.588 127.205 109.698 126.646 109.748C126.138 109.799 125.528 109.824 124.816 109.824ZM124.816 107.523C125.511 107.523 126.036 107.473 126.392 107.372C126.748 107.254 126.994 107.077 127.129 106.841C127.282 106.605 127.358 106.259 127.358 105.804V101.177C127.358 100.502 127.18 100.03 126.824 99.7606C126.468 99.4909 125.799 99.356 124.816 99.356C123.833 99.356 123.164 99.4909 122.808 99.7606C122.452 100.03 122.274 100.502 122.274 101.177V105.804C122.274 106.259 122.342 106.605 122.478 106.841C122.63 107.077 122.884 107.254 123.24 107.372C123.596 107.473 124.121 107.523 124.816 107.523ZM133.962 97.3332H137.495V99.4825C137.495 99.0947 137.656 98.7155 137.978 98.3446C138.3 97.9737 138.707 97.6703 139.198 97.4343C139.707 97.1983 140.207 97.0803 140.698 97.0803H142.02V100.14H140.749C139.698 100.14 138.919 100.3 138.41 100.62C137.919 100.941 137.673 101.472 137.673 102.213V109.571H133.962V97.3332ZM150.063 109.824C149.419 109.824 148.911 109.807 148.538 109.774C148.165 109.757 147.708 109.715 147.166 109.647C146.623 109.58 146.174 109.462 145.818 109.293C145.48 109.125 145.124 108.872 144.751 108.535C144.056 107.962 143.709 106.984 143.709 105.602V101.531C143.709 100.418 143.963 99.4909 144.471 98.7492C144.658 98.4795 144.929 98.235 145.285 98.0159C145.657 97.7799 146.03 97.5945 146.403 97.4596C146.708 97.3585 147.115 97.2742 147.623 97.2067C148.132 97.1393 148.581 97.0972 148.97 97.0803H150.318C151.267 97.0803 152.512 97.232 154.054 97.5355V99.9629C152.309 99.5583 150.97 99.356 150.038 99.356C148.326 99.356 147.471 99.9292 147.471 101.075V105.576C147.471 106.874 148.411 107.523 150.292 107.523C151.207 107.523 152.521 107.338 154.232 106.967V109.394C152.69 109.681 151.3 109.824 150.063 109.824ZM159.81 109.824C158.658 109.824 157.794 109.723 157.217 109.521C156.658 109.302 156.26 108.922 156.023 108.383C155.802 107.827 155.692 107.001 155.692 105.905C155.692 104.927 155.811 104.16 156.048 103.604C156.302 103.048 156.701 102.652 157.243 102.416C157.802 102.163 158.565 102.036 159.531 102.036H163.699V101.202C163.699 100.679 163.623 100.292 163.47 100.039C163.335 99.7859 163.072 99.6089 162.682 99.5077C162.31 99.4066 161.742 99.356 160.979 99.356C159.929 99.356 158.488 99.4572 156.658 99.6595V97.3332C157.997 97.1646 159.564 97.0803 161.361 97.0803C162.937 97.0803 164.148 97.1983 164.996 97.4343C165.86 97.6703 166.478 98.0749 166.851 98.648C167.224 99.2212 167.41 100.056 167.41 101.151V109.571H163.776V108.459C163.487 108.948 163.098 109.293 162.606 109.496C162.115 109.715 161.183 109.824 159.81 109.824ZM161.259 107.523C162.005 107.523 162.538 107.498 162.86 107.447C163.098 107.414 163.259 107.363 163.343 107.296C163.445 107.228 163.53 107.119 163.598 106.967C163.665 106.849 163.699 106.672 163.699 106.436V104.059H161.157C160.581 104.059 160.174 104.101 159.937 104.186C159.7 104.253 159.539 104.405 159.454 104.641C159.37 104.86 159.327 105.256 159.327 105.829C159.327 106.385 159.37 106.773 159.454 106.992C159.539 107.211 159.7 107.355 159.937 107.422C160.191 107.49 160.632 107.523 161.259 107.523ZM170.675 97.3332H174.209V99.4825C174.209 99.0947 174.37 98.7155 174.692 98.3446C175.013 97.9737 175.42 97.6703 175.912 97.4343C176.42 97.1983 176.92 97.0803 177.411 97.0803H178.733V100.14H177.462C176.412 100.14 175.632 100.3 175.124 100.62C174.632 100.941 174.386 101.472 174.386 102.213V109.571H170.675V97.3332ZM186.498 109.824C185.752 109.824 185.142 109.799 184.668 109.748C184.193 109.698 183.676 109.597 183.117 109.445C182.541 109.276 182.075 109.04 181.719 108.737C181.363 108.417 181.067 107.962 180.829 107.372C180.575 106.798 180.448 106.107 180.448 105.298V97.4343C180.448 96.6589 180.567 95.9762 180.804 95.3862C181.041 94.7962 181.346 94.3326 181.719 93.9955C182.041 93.7089 182.482 93.4813 183.041 93.3127C183.6 93.1273 184.159 93.0093 184.719 92.9587C185.363 92.925 185.956 92.9082 186.498 92.9082C187.26 92.9082 187.871 92.9335 188.328 92.984C188.786 93.0177 189.294 93.1189 189.853 93.2875C190.463 93.4729 190.946 93.7173 191.302 94.0207C191.658 94.3242 191.963 94.7625 192.217 95.3356C192.471 95.9087 192.598 96.6083 192.598 97.4343V105.298C192.598 106.074 192.471 106.756 192.217 107.346C191.98 107.936 191.675 108.391 191.302 108.712C190.963 108.998 190.497 109.234 189.904 109.42C189.328 109.605 188.777 109.715 188.252 109.748C187.777 109.799 187.193 109.824 186.498 109.824ZM186.549 107.447C187.26 107.447 187.769 107.405 188.074 107.321C188.379 107.22 188.582 107.043 188.684 106.79C188.786 106.537 188.836 106.124 188.836 105.551V97.1815C188.836 96.6083 188.786 96.1953 188.684 95.9425C188.582 95.6896 188.379 95.521 188.074 95.4367C187.769 95.3356 187.26 95.285 186.549 95.285C185.82 95.285 185.295 95.3356 184.973 95.4367C184.668 95.521 184.464 95.6896 184.363 95.9425C184.261 96.1953 184.21 96.6083 184.21 97.1815V105.551C184.21 106.124 184.261 106.537 184.363 106.79C184.464 107.043 184.668 107.22 184.973 107.321C185.295 107.405 185.82 107.447 186.549 107.447ZM200.556 97.0297L196.057 99.5077V96.3976L201.268 93.161H204.267V109.571H200.556V97.0297Z" fill="white"/>
</svg>
