<svg width="296" height="168" viewBox="0 0 296 168" fill="none" xmlns="http://www.w3.org/2000/svg">
<path fill-rule="evenodd" clip-rule="evenodd" d="M91.6953 6.3163C99.6169 2.70667 121.07 0 146.66 0V4.01318C146.66 4.01318 104.589 4.80244 94.1879 9.08985C89.4136 11.0579 84.3174 17.2119 80.2009 23.5527C81.8284 31.5663 146.66 31.2805 146.66 31.2805C146.66 31.2805 211.46 31.5662 213.112 23.5574C208.997 17.2149 203.9 11.0584 199.117 9.08985C188.701 4.80244 146.66 4.01318 146.66 4.01318V0C172.233 0 193.704 2.70667 201.61 6.3163C209.516 9.92593 218.331 27.4033 218.331 27.4033C218.331 27.4033 223.751 26.4 225.702 24.5963C226.267 24.0744 226.251 23.2946 226.233 22.4498C226.19 20.3748 226.138 17.9077 234.663 17.9077C246.658 17.9077 247.237 24.3243 234.663 28.2015C222.088 32.0787 222.09 33.9493 222.09 33.9493C235.965 33.9493 241.24 41.066 243.877 53.0966C246.486 64.9934 248.972 82.6068 240.011 90.894C242.756 79.131 237.265 72.313 223.825 78.3283C239.209 66.3646 241.817 50.1893 233.363 48.0511C224.909 45.913 195.265 63.9634 195.265 63.9634C199.882 59.0498 206.207 53.9228 211.484 49.6462L211.484 49.6461L211.484 49.6459C217.046 45.1379 221.442 41.5749 221.442 40.2031C221.442 39.0866 219.364 34.2228 216.186 28.6245C213.063 31.424 172.219 32.616 146.669 32.616C121.087 32.616 80.1751 31.421 77.1407 28.614L77.2881 28.3321C74.0129 34.0527 71.8591 39.0672 71.8591 40.2031C71.8591 41.575 76.2551 45.138 81.817 49.6462C87.0933 53.9227 93.4189 59.0498 98.0361 63.9634C98.0361 63.9634 68.3899 45.9174 59.9355 48.0556C51.481 50.1937 54.0896 66.369 69.4734 78.3328C56.0338 72.3175 50.5402 79.1354 53.287 90.8985C44.3242 82.6113 46.8124 64.9979 49.4276 53.0966C52.0652 41.0659 57.3403 33.9492 71.2147 33.9492C71.2147 33.9492 71.2125 32.0787 58.6401 28.2015C46.0677 24.3243 46.6429 17.9077 58.6401 17.9077C67.1646 17.9077 67.1129 20.374 67.0694 22.4488C67.0517 23.294 67.0353 24.0742 67.6006 24.5963C69.5537 26.4 74.9737 27.4033 74.9737 27.4033C74.9737 27.4033 83.7737 9.92593 91.6953 6.3163ZM146.66 67.4214C146.66 67.4214 177.428 67.7782 187.951 64.8642C180.69 68.3735 165.946 70.5807 146.651 70.5807C127.357 70.5807 112.615 68.3735 105.354 64.8642C115.868 67.7782 146.66 67.4214 146.66 67.4214ZM189.867 76.1946C195.068 84.7494 191.022 90.6309 177.158 91.5673C164.026 92.4591 149.824 92.4993 148.341 92.5015C146.531 92.5015 129.299 92.4525 116.167 91.5673C102.292 90.6309 98.2458 84.7494 103.458 76.1946C92.1859 82.3437 81.4908 82.0762 74.8423 79.0016C76.539 82.5689 86.1149 89.3601 95.1468 92.6353C103.938 95.8235 124.162 96.1089 148.21 96.1111H148.511C172.532 96.1111 189.403 95.8235 198.192 92.6353C207.226 89.3601 216.8 82.56 218.498 79.0016C211.834 82.0762 201.139 82.3437 189.867 76.1946ZM151.529 61.7316C151.529 62.66 149.345 63.4127 146.651 63.4127C143.957 63.4127 141.773 62.66 141.773 61.7316C141.773 60.8032 143.957 60.0505 146.651 60.0505C149.345 60.0505 151.529 60.8032 151.529 61.7316Z" fill="#0077FF"/>
<path d="M4.48 112.464H21.12C25.1733 112.464 28.3733 112.741 30.72 113.296C33.1093 113.851 34.8373 114.832 35.904 116.24C37.0133 117.605 37.568 119.525 37.568 122V129.872C37.568 132.603 36.9707 134.736 35.776 136.272C34.624 137.808 32.768 138.896 30.208 139.536C27.6907 140.176 24.2773 140.496 19.968 140.496H14.464V154H4.48V112.464ZM20.8 133.648C23.4027 133.648 25.2373 133.349 26.304 132.752C27.3707 132.112 27.904 131.045 27.904 129.552V122.896C27.904 121.531 27.392 120.635 26.368 120.208C25.3867 119.781 23.488 119.568 20.672 119.568H14.464V133.648H20.8ZM62.973 154.64C61.0957 154.64 59.4103 154.555 57.917 154.384C56.4663 154.213 54.8663 153.893 53.117 153.424C51.1543 152.912 49.533 152.251 48.253 151.44C46.973 150.587 45.9063 149.413 45.053 147.92C44.157 146.427 43.709 144.656 43.709 142.608V124.368C43.709 116.005 50.1303 111.824 62.973 111.824C66.2583 111.824 70.653 112.293 76.157 113.232V120.72C71.2077 119.525 66.8557 118.928 63.101 118.928C61.5223 118.928 60.285 118.971 59.389 119.056C58.5357 119.141 57.6397 119.355 56.701 119.696C54.6957 120.379 53.693 121.893 53.693 124.24V141.904C53.693 145.659 57.1277 147.536 63.997 147.536C66.941 147.536 71.0797 146.917 76.413 145.68V153.232C71.8477 154.171 67.3677 154.64 62.973 154.64Z" fill="#0077FF"/>
<path d="M81.304 138.576H86.272V140.304C86.584 139.536 87.196 138.996 88.108 138.684C89.02 138.372 90.376 138.216 92.176 138.216C93.688 138.216 94.9 138.336 95.812 138.576C96.748 138.816 97.456 139.2 97.936 139.728C98.392 140.256 98.704 140.844 98.872 141.492C99.04 142.116 99.124 142.98 99.124 144.084V149.808C99.124 151.536 98.872 152.868 98.368 153.804C97.864 154.74 97.084 155.4 96.028 155.784C94.996 156.168 93.58 156.36 91.78 156.36C90.052 156.36 88.804 156.216 88.036 155.928C87.268 155.64 86.776 155.076 86.56 154.236V163.488H81.304V138.576ZM90.16 153.084C91.192 153.084 91.972 153.012 92.5 152.868C93.028 152.724 93.388 152.472 93.58 152.112C93.772 151.752 93.868 151.212 93.868 150.492V144.048C93.868 143.256 93.784 142.692 93.616 142.356C93.448 141.996 93.112 141.756 92.608 141.636C92.104 141.516 91.276 141.456 90.124 141.456C89.14 141.456 88.384 141.54 87.856 141.708C87.352 141.876 87.004 142.14 86.812 142.5C86.644 142.86 86.56 143.376 86.56 144.048V150.492C86.56 151.212 86.644 151.752 86.812 152.112C87.004 152.472 87.352 152.724 87.856 152.868C88.36 153.012 89.128 153.084 90.16 153.084ZM111.594 156.36C110.514 156.36 109.626 156.324 108.93 156.252C108.234 156.18 107.49 156.036 106.698 155.82C105.834 155.58 105.138 155.244 104.61 154.812C104.082 154.356 103.638 153.72 103.278 152.904C102.918 152.112 102.738 151.152 102.738 150.024V144.876C102.738 143.724 102.918 142.716 103.278 141.852C103.638 140.988 104.106 140.316 104.682 139.836C105.186 139.428 105.846 139.092 106.662 138.828C107.502 138.54 108.318 138.36 109.11 138.288C110.022 138.24 110.85 138.216 111.594 138.216C112.698 138.216 113.574 138.252 114.222 138.324C114.894 138.372 115.626 138.516 116.418 138.756C117.282 139.02 117.978 139.38 118.506 139.836C119.058 140.292 119.526 140.94 119.91 141.78C120.27 142.644 120.45 143.676 120.45 144.876V150.024C120.45 151.104 120.27 152.052 119.91 152.868C119.574 153.684 119.13 154.32 118.578 154.776C118.098 155.184 117.438 155.52 116.598 155.784C115.782 156.024 114.978 156.18 114.186 156.252C113.466 156.324 112.602 156.36 111.594 156.36ZM111.594 153.084C112.578 153.084 113.322 153.012 113.826 152.868C114.33 152.7 114.678 152.448 114.87 152.112C115.086 151.776 115.194 151.284 115.194 150.636V144.048C115.194 143.088 114.942 142.416 114.438 142.032C113.934 141.648 112.986 141.456 111.594 141.456C110.202 141.456 109.254 141.648 108.75 142.032C108.246 142.416 107.994 143.088 107.994 144.048V150.636C107.994 151.284 108.09 151.776 108.282 152.112C108.498 152.448 108.858 152.7 109.362 152.868C109.866 153.012 110.61 153.084 111.594 153.084ZM131.242 156.36C129.178 156.36 127.654 156.216 126.67 155.928C125.686 155.616 125.002 155.04 124.618 154.2C124.234 153.36 124.042 152.052 124.042 150.276V143.472C124.042 141.552 124.582 140.196 125.662 139.404C126.766 138.612 128.542 138.216 130.99 138.216C132.142 138.216 133.042 138.288 133.69 138.432C134.362 138.552 134.902 138.78 135.31 139.116C135.718 139.428 136.138 139.896 136.57 140.52V130.8H141.826V156H136.75V154.02C136.318 154.716 135.922 155.208 135.562 155.496C135.226 155.76 134.746 155.964 134.122 156.108C133.474 156.276 132.514 156.36 131.242 156.36ZM132.574 153.084C133.75 153.084 134.614 153.024 135.166 152.904C135.718 152.784 136.09 152.568 136.282 152.256C136.474 151.92 136.57 151.428 136.57 150.78V143.76C136.57 143.16 136.462 142.704 136.246 142.392C136.054 142.056 135.694 141.816 135.166 141.672C134.662 141.528 133.894 141.456 132.862 141.456C131.758 141.456 130.966 141.528 130.486 141.672C130.006 141.792 129.682 142.02 129.514 142.356C129.37 142.668 129.298 143.196 129.298 143.94V150.6C129.298 151.272 129.37 151.788 129.514 152.148C129.682 152.484 129.994 152.724 130.45 152.868C130.906 153.012 131.614 153.084 132.574 153.084ZM155.269 156.36C153.061 156.36 151.309 156.132 150.013 155.676C148.741 155.22 147.829 154.524 147.277 153.588C146.725 152.628 146.449 151.368 146.449 149.808V130.8H151.705V140.304C152.017 139.512 152.593 138.972 153.433 138.684C154.273 138.372 155.581 138.216 157.357 138.216C158.869 138.216 160.081 138.336 160.993 138.576C161.929 138.816 162.637 139.2 163.117 139.728C163.573 140.256 163.885 140.844 164.053 141.492C164.221 142.116 164.305 142.98 164.305 144.084V149.808C164.305 152.16 163.597 153.84 162.181 154.848C160.765 155.856 158.461 156.36 155.269 156.36ZM155.341 153.084C156.373 153.084 157.153 153.012 157.681 152.868C158.209 152.724 158.569 152.472 158.761 152.112C158.953 151.752 159.049 151.212 159.049 150.492V144.048C159.049 143.256 158.965 142.692 158.797 142.356C158.629 141.996 158.293 141.756 157.789 141.636C157.285 141.516 156.457 141.456 155.305 141.456C154.321 141.456 153.565 141.54 153.037 141.708C152.533 141.876 152.185 142.14 151.993 142.5C151.801 142.86 151.705 143.376 151.705 144.048V150.492C151.705 151.212 151.789 151.752 151.957 152.112C152.149 152.472 152.497 152.724 153.001 152.868C153.529 153.012 154.309 153.084 155.341 153.084ZM176.773 156.36C175.693 156.36 174.805 156.324 174.109 156.252C173.413 156.18 172.669 156.036 171.877 155.82C171.013 155.58 170.317 155.244 169.789 154.812C169.261 154.356 168.817 153.72 168.457 152.904C168.097 152.112 167.917 151.152 167.917 150.024V144.876C167.917 143.724 168.097 142.716 168.457 141.852C168.817 140.988 169.285 140.316 169.861 139.836C170.365 139.428 171.025 139.092 171.841 138.828C172.681 138.54 173.497 138.36 174.289 138.288C175.201 138.24 176.029 138.216 176.773 138.216C177.877 138.216 178.753 138.252 179.401 138.324C180.073 138.372 180.805 138.516 181.597 138.756C182.461 139.02 183.157 139.38 183.685 139.836C184.237 140.292 184.705 140.94 185.089 141.78C185.449 142.644 185.629 143.676 185.629 144.876V150.024C185.629 151.104 185.449 152.052 185.089 152.868C184.753 153.684 184.309 154.32 183.757 154.776C183.277 155.184 182.617 155.52 181.777 155.784C180.961 156.024 180.157 156.18 179.365 156.252C178.645 156.324 177.781 156.36 176.773 156.36ZM176.773 153.084C177.757 153.084 178.501 153.012 179.005 152.868C179.509 152.7 179.857 152.448 180.049 152.112C180.265 151.776 180.373 151.284 180.373 150.636V144.048C180.373 143.088 180.121 142.416 179.617 142.032C179.113 141.648 178.165 141.456 176.773 141.456C175.381 141.456 174.433 141.648 173.929 142.032C173.425 142.416 173.173 143.088 173.173 144.048V150.636C173.173 151.284 173.269 151.776 173.461 152.112C173.677 152.448 174.037 152.7 174.541 152.868C175.045 153.012 175.789 153.084 176.773 153.084ZM189.726 138.576H194.73V141.636C194.73 141.084 194.958 140.544 195.414 140.016C195.87 139.488 196.446 139.056 197.142 138.72C197.862 138.384 198.57 138.216 199.266 138.216H201.138V142.572H199.338C197.85 142.572 196.746 142.8 196.026 143.256C195.33 143.712 194.982 144.468 194.982 145.524V156H189.726V138.576ZM212.53 156.36C211.618 156.36 210.898 156.336 210.37 156.288C209.842 156.264 209.194 156.204 208.426 156.108C207.658 156.012 207.022 155.844 206.518 155.604C206.038 155.364 205.534 155.004 205.006 154.524C204.022 153.708 203.53 152.316 203.53 150.348V144.552C203.53 142.968 203.89 141.648 204.61 140.592C204.874 140.208 205.258 139.86 205.762 139.548C206.29 139.212 206.818 138.948 207.346 138.756C207.778 138.612 208.354 138.492 209.074 138.396C209.794 138.3 210.43 138.24 210.982 138.216H212.89C214.234 138.216 215.998 138.432 218.182 138.864V142.32C215.71 141.744 213.814 141.456 212.494 141.456C210.07 141.456 208.858 142.272 208.858 143.904V150.312C208.858 152.16 210.19 153.084 212.854 153.084C214.15 153.084 216.01 152.82 218.434 152.292V155.748C216.25 156.156 214.282 156.36 212.53 156.36ZM226.334 156.36C224.702 156.36 223.478 156.216 222.662 155.928C221.87 155.616 221.306 155.076 220.97 154.308C220.658 153.516 220.502 152.34 220.502 150.78C220.502 149.388 220.67 148.296 221.006 147.504C221.366 146.712 221.93 146.148 222.698 145.812C223.49 145.452 224.57 145.272 225.938 145.272H231.842V144.084C231.842 143.34 231.734 142.788 231.518 142.428C231.326 142.068 230.954 141.816 230.402 141.672C229.874 141.528 229.07 141.456 227.99 141.456C226.502 141.456 224.462 141.6 221.87 141.888V138.576C223.766 138.336 225.986 138.216 228.53 138.216C230.762 138.216 232.478 138.384 233.678 138.72C234.902 139.056 235.778 139.632 236.306 140.448C236.834 141.264 237.098 142.452 237.098 144.012V156H231.95V154.416C231.542 155.112 230.99 155.604 230.294 155.892C229.598 156.204 228.278 156.36 226.334 156.36ZM228.386 153.084C229.442 153.084 230.198 153.048 230.654 152.976C230.99 152.928 231.218 152.856 231.338 152.76C231.482 152.664 231.602 152.508 231.698 152.292C231.794 152.124 231.842 151.872 231.842 151.536V148.152H228.242C227.426 148.152 226.85 148.212 226.514 148.332C226.178 148.428 225.95 148.644 225.83 148.98C225.71 149.292 225.65 149.856 225.65 150.672C225.65 151.464 225.71 152.016 225.83 152.328C225.95 152.64 226.178 152.844 226.514 152.94C226.874 153.036 227.498 153.084 228.386 153.084ZM241.722 138.576H246.726V141.636C246.726 141.084 246.954 140.544 247.41 140.016C247.866 139.488 248.442 139.056 249.138 138.72C249.858 138.384 250.566 138.216 251.262 138.216H253.134V142.572H251.334C249.846 142.572 248.742 142.8 248.022 143.256C247.326 143.712 246.978 144.468 246.978 145.524V156H241.722V138.576ZM264.131 156.36C263.075 156.36 262.211 156.324 261.539 156.252C260.867 156.18 260.135 156.036 259.343 155.82C258.527 155.58 257.867 155.244 257.363 154.812C256.859 154.356 256.439 153.708 256.103 152.868C255.743 152.052 255.563 151.068 255.563 149.916V138.72C255.563 137.616 255.731 136.644 256.067 135.804C256.403 134.964 256.835 134.304 257.363 133.824C257.819 133.416 258.443 133.092 259.235 132.852C260.027 132.588 260.819 132.42 261.611 132.348C262.523 132.3 263.363 132.276 264.131 132.276C265.211 132.276 266.075 132.312 266.723 132.384C267.371 132.432 268.091 132.576 268.883 132.816C269.747 133.08 270.431 133.428 270.935 133.86C271.439 134.292 271.871 134.916 272.231 135.732C272.591 136.548 272.771 137.544 272.771 138.72V149.916C272.771 151.02 272.591 151.992 272.231 152.832C271.895 153.672 271.463 154.32 270.935 154.776C270.455 155.184 269.795 155.52 268.955 155.784C268.139 156.048 267.359 156.204 266.615 156.252C265.943 156.324 265.115 156.36 264.131 156.36ZM264.203 152.976C265.211 152.976 265.931 152.916 266.363 152.796C266.795 152.652 267.083 152.4 267.227 152.04C267.371 151.68 267.443 151.092 267.443 150.276V138.36C267.443 137.544 267.371 136.956 267.227 136.596C267.083 136.236 266.795 135.996 266.363 135.876C265.931 135.732 265.211 135.66 264.203 135.66C263.171 135.66 262.427 135.732 261.971 135.876C261.539 135.996 261.251 136.236 261.107 136.596C260.963 136.956 260.891 137.544 260.891 138.36V150.276C260.891 151.092 260.963 151.68 261.107 152.04C261.251 152.4 261.539 152.652 261.971 152.796C262.427 152.916 263.171 152.976 264.203 152.976ZM284.041 138.144L277.669 141.672V137.244L285.049 132.636H289.297V156H284.041V138.144Z" fill="white"/>
</svg>
