<svg width="20" height="20" viewBox="0 0 20 20" fill="none" xmlns="http://www.w3.org/2000/svg">
<g clip-path="url(#clip0_487_58)">
<mask id="mask0_487_58" style="mask-type:luminance" maskUnits="userSpaceOnUse" x="0" y="0" width="20" height="20">
<path d="M20 0H0V20H20V0Z" fill="white"/>
</mask>
<g mask="url(#mask0_487_58)">
<path d="M9.83342 9.08333C7.94172 8.59167 7.33339 8.08333 7.33339 7.29167C7.33339 6.38333 8.17506 5.75 9.58342 5.75C11.0667 5.75 11.6167 6.45833 11.6667 7.5H13.5084C13.4501 6.06667 12.5751 4.75 10.8334 4.325V2.5H8.33342V4.3C6.71672 4.65 5.41672 5.7 5.41672 7.30833C5.41672 9.23333 7.00839 10.1917 9.33342 10.75C11.4167 11.25 11.8334 11.9833 11.8334 12.7583C11.8334 13.3333 11.4251 14.25 9.58342 14.25C7.86672 14.25 7.19172 13.4833 7.10006 12.5H5.26672C5.36672 14.325 6.73339 15.35 8.33342 15.6917V17.5H10.8334V15.7083C12.4584 15.4 13.7501 14.4583 13.7501 12.75C13.7501 10.3833 11.7251 9.575 9.83342 9.08333Z" fill="#0077FF"/>
</g>
</g>
<defs>
<clipPath id="clip0_487_58">
<rect width="20" height="20" fill="white"/>
</clipPath>
</defs>
</svg>
