<svg width="52" height="52" viewBox="0 0 52 52" fill="none" xmlns="http://www.w3.org/2000/svg">
<path d="M26 0C33.1795 0 39.6795 2.91078 44.3848 7.61516C49.0902 12.3205 52 18.8205 52 26C52 33.1784 49.0892 39.6795 44.3848 44.3848C39.6795 49.0902 33.1795 52 26 52C18.8205 52 12.3205 49.0892 7.61516 44.3848C2.91078 39.6795 0 33.1795 0 26C0 18.8205 2.90977 12.3205 7.61516 7.61516C12.3205 2.91078 18.8216 0 26 0ZM24.1394 26.9516C23.6326 26.5017 22.9968 26.1127 22.9105 25.1773L22.8566 25.1784C22.7307 25.1763 22.6098 25.1479 22.4961 25.0829C22.3153 24.9793 22.1873 24.8026 22.101 24.6025C21.9192 24.183 21.775 23.0801 22.2341 22.7652L22.1477 22.7084L22.1376 22.5855C22.1203 22.3641 22.1163 22.0949 22.1112 21.8126C22.0949 20.7756 22.0736 19.5193 21.2398 19.2674L20.8823 19.1588L21.1179 18.8673C21.7912 18.0345 22.4951 17.3073 23.206 16.7477C24.0084 16.1159 24.8249 15.6945 25.6242 15.5726C26.4448 15.4487 27.2401 15.6376 27.9754 16.2307C28.1917 16.4064 28.403 16.6166 28.6061 16.8645C29.3902 16.9396 30.031 17.3621 30.4891 17.9644C30.7623 18.3249 30.9695 18.7495 31.1015 19.2024C31.2335 19.6534 31.2904 20.1317 31.266 20.604C31.2213 21.45 30.9126 22.2757 30.289 22.878C30.3987 22.881 30.5023 22.9064 30.5937 22.9552C30.941 23.142 30.9522 23.5452 30.8608 23.8845C30.7704 24.1678 30.6556 24.4959 30.548 24.7721C30.4159 25.1438 30.224 25.2139 29.8523 25.1743C29.834 26.0833 29.1688 26.456 28.6 26.9872C29.9894 29.5821 35.883 28.9423 35.883 34.1006H16.8411C16.8411 28.9423 22.5987 29.6512 24.1475 26.9537L24.1394 26.9516ZM14.8769 27.2482C14.7999 27.1655 14.7283 27.078 14.6626 26.9862C14.5052 26.7698 14.3569 26.5434 14.2147 26.3169L13.5038 25.1855C13.2336 24.7924 13.0924 24.4329 13.0924 24.1475C13.0924 23.8631 13.2529 23.4924 13.5748 23.4091C13.5484 22.9836 13.5322 22.5509 13.5322 22.1234C13.5322 21.8695 13.5373 21.6135 13.5464 21.3627C13.5606 21.2042 13.5891 21.0468 13.6317 20.8934C13.8293 20.2492 14.2603 19.7019 14.8403 19.3588C15.0458 19.2295 15.2656 19.1245 15.4954 19.046C15.9088 18.8896 15.7097 18.2589 16.1647 18.2498C17.228 18.2213 18.9759 19.1323 19.6574 19.8707C20.0923 20.3506 20.3397 20.9711 20.3541 21.6186L20.3115 23.4802C20.5004 23.527 20.6477 23.6742 20.6954 23.8631C20.7513 24.0916 20.6954 24.4034 20.4963 24.8442C20.4963 24.8584 20.4811 24.8584 20.4811 24.8737L19.6706 26.2092C19.4868 26.5109 19.2969 26.8196 19.0836 27.102C18.8307 27.4412 18.6225 27.3802 18.8388 27.7042C19.0196 27.953 19.2298 28.1531 19.4614 28.3217C17.7846 29.1484 16.2754 30.2717 15.9484 32.7326H9.61289C9.61289 28.4893 13.3961 29.837 14.9459 27.7042C15.1247 27.4422 15.077 27.4615 14.8769 27.2482ZM33.4435 27.4391C33.3694 27.3599 33.3003 27.2746 33.2373 27.1862C33.085 26.977 32.9418 26.7597 32.8047 26.5413L32.1181 25.4485C31.9536 25.2098 31.8388 24.9834 31.7769 24.7802C31.8246 24.6441 31.8713 24.508 31.918 24.3669C31.9384 24.3171 31.9566 24.2653 31.9698 24.2125C32.0064 24.0795 32.0328 23.9393 32.048 23.7941C32.0897 23.7687 32.1364 23.7484 32.1872 23.7352C32.1618 23.3238 32.1455 22.9064 32.1455 22.493C32.1455 22.3661 32.1476 22.2381 32.1496 22.1112C32.2796 21.7293 32.3588 21.3302 32.3923 20.927C32.6148 20.4709 32.9672 20.087 33.408 19.825C33.606 19.7011 33.8193 19.5985 34.0407 19.5234C34.4398 19.373 34.2469 18.7637 34.6866 18.7545C35.7124 18.7281 37.3994 19.6066 38.0575 20.3196C38.4765 20.7832 38.7151 21.3818 38.7298 22.0066L38.6882 23.8032C38.87 23.8479 39.0132 23.9901 39.0589 24.1729C39.1138 24.3933 39.0589 24.6939 38.8659 25.1195C38.8659 25.1337 38.8527 25.1337 38.8527 25.1479L38.0707 26.4367C37.893 26.7282 37.7102 27.0258 37.504 27.299C37.2592 27.626 37.0581 27.5671 37.2663 27.8799C38.7644 29.9376 42.3871 28.6396 42.3871 32.7326H36.8083C36.4691 30.226 34.8847 29.0916 33.1632 28.2587C33.2912 28.146 33.408 28.0211 33.5105 27.8799C33.6822 27.627 33.6375 27.6453 33.4435 27.4391ZM27.9327 3.56789V7.43437H24.5456V3.53234C18.9079 3.89187 13.8338 6.32633 10.0801 10.0801C6.26031 13.8998 3.80656 19.0856 3.51508 24.8432H8.1057V28.2293H3.59531C4.11836 33.5563 6.49898 38.3398 10.0801 41.9199C13.8338 45.6747 18.9079 48.1091 24.5456 48.4677V45.1527H27.9327V48.4321C33.3785 47.969 38.2728 45.567 41.9199 41.9199C45.501 38.3398 47.8816 33.5563 48.4047 28.2293H44.3727V24.8432H48.4849C48.1934 19.0856 45.7397 13.8998 41.9199 10.0801C38.2728 6.43297 33.3785 4.03102 27.9327 3.56789Z" fill="white"/>
</svg>
