<svg width="18" height="31" viewBox="0 0 18 31" fill="none" xmlns="http://www.w3.org/2000/svg">
<g id="mobile-icon 1" clip-path="url(#clip0_208_661)">
<g id="Group">
<path id="Vector" fill-rule="evenodd" clip-rule="evenodd" d="M2.70012 0H15.2974C16.7832 0 18 1.24373 18 2.75993V28.2376C18 29.7563 16.7832 30.9975 15.2999 30.9975H2.70259C1.21678 31 0 29.7563 0 28.2401V2.76245C0 1.24373 1.21678 0 2.70012 0ZM8.99877 25.2531C9.9638 25.2531 10.7487 26.0528 10.7487 27.0417C10.7487 28.0282 9.9638 28.8304 8.99877 28.8304C8.03126 28.8304 7.24887 28.0307 7.24887 27.0417C7.24887 26.0553 8.03373 25.2531 8.99877 25.2531ZM6.21226 2.23519H11.7877C11.8272 2.23519 11.8618 2.27051 11.8618 2.31087V3.14339C11.8618 3.18376 11.8272 3.21908 11.7877 3.21908H6.21226C6.17277 3.21908 6.13822 3.18628 6.13822 3.14339V2.31087C6.13822 2.26799 6.1703 2.23519 6.21226 2.23519ZM2.38174 5.43156H15.6183C15.8601 5.43156 16.0576 5.63591 16.0576 5.88062V23.5426C16.0576 23.7874 15.8577 23.9917 15.6183 23.9917H2.38174C2.14233 23.9917 1.94241 23.7899 1.94241 23.5426V5.87809C1.94241 5.63338 2.13986 5.43156 2.38174 5.43156Z" fill="white"/>
</g>
</g>
<defs>
<clipPath id="clip0_208_661">
<rect width="18" height="31" fill="white"/>
</clipPath>
</defs>
</svg>
