<svg width="54" height="67" viewBox="0 0 54 67" fill="none" xmlns="http://www.w3.org/2000/svg">
<path fill-rule="evenodd" clip-rule="evenodd" d="M44.2119 49.5444C44.2119 49.3172 44.2119 49.0846 44.2119 48.8574C44.2119 48.6302 44.2119 48.3976 44.2169 48.165C44.5027 48.1488 44.7384 48.0514 44.9189 47.8675C45.0995 47.689 45.1947 47.4726 45.2148 47.2184C45.2348 46.9317 45.1496 46.6828 44.9641 46.4611C44.7785 46.2447 44.4777 46.1203 44.0765 46.0878C43.6954 46.0553 43.3996 46.1311 43.184 46.315C42.9683 46.4989 42.8329 46.7423 42.7878 47.0615C42.7327 47.4564 42.838 47.8242 43.1138 48.1596C43.0135 48.5274 42.9132 48.8953 42.8129 49.2631C42.2412 49.1008 41.6746 48.9385 41.113 48.7763C40.5564 48.614 40.0048 48.4517 39.4532 48.2894C39.5936 47.6836 39.7341 47.0777 39.8745 46.4719C40.0149 45.866 40.1553 45.2602 40.2906 44.6543C40.6467 44.6814 40.9977 44.7138 41.3537 44.7463C41.2685 45.179 41.1832 45.6118 41.098 46.0445C41.0127 46.4773 40.9275 46.91 40.8422 47.3428C41.1932 47.4456 41.5442 47.5429 41.9003 47.6457C41.815 47.3266 41.8 47.0128 41.8551 46.6882C41.9053 46.3853 42.0056 46.104 42.141 45.8552C42.2764 45.6064 42.4569 45.3846 42.6725 45.1844C43.1037 44.795 43.6102 44.6219 44.1918 44.676C44.6782 44.7192 45.0995 44.9248 45.4655 45.3034C45.7162 45.5577 45.9068 45.8552 46.0271 46.1906C46.1475 46.526 46.2026 46.8992 46.1876 47.3157C46.1725 47.6457 46.1174 47.9432 46.0271 48.2083C45.9318 48.4733 45.7965 48.7005 45.621 48.9007C45.2649 49.2902 44.7936 49.5065 44.2119 49.5444ZM3.16408 0H41.5342C42.4017 0 43.194 0.384065 43.7706 1.00073C43.7907 1.02237 43.8108 1.04401 43.8258 1.07105C44.3623 1.68231 44.6983 2.50995 44.6983 3.41331V37.5897C44.2269 37.5572 43.7556 37.5464 43.2893 37.5464C43.1288 37.5464 42.9683 37.5518 42.8079 37.5518V3.41331C42.8079 3.05629 42.6825 2.73173 42.4719 2.48831L42.4318 2.45044C42.2011 2.20161 41.8852 2.04474 41.5342 2.04474H3.16408C2.81307 2.04474 2.49717 2.1962 2.26651 2.44503H2.26149C2.03584 2.69386 1.89544 3.03465 1.89544 3.41331V59.3894C1.89544 59.7465 2.0208 60.071 2.2314 60.3144L2.27152 60.3523C2.50218 60.6011 2.81809 60.758 3.1691 60.758H28.9832V61.1421C28.9832 61.7101 29.0333 62.2618 29.1286 62.7973H3.16408C2.29659 62.7973 1.50432 62.4133 0.927663 61.7966C0.907605 61.775 0.887548 61.7533 0.872504 61.7263C0.33095 61.115 0 60.2928 0 59.3894V3.41331C0 2.47749 0.356022 1.62281 0.927663 1.00614L0.932677 1.00073C1.50933 0.384065 2.29659 0 3.16408 0ZM33.6466 10.4401H34.7397V16.8015H33.6466V10.4401ZM7.78735 26.4897H13.1528C13.6091 26.4897 13.9902 26.8954 13.9902 27.393V32.2777C13.9902 32.7699 13.6141 33.1811 13.1528 33.1811H7.78735C7.33104 33.1811 6.94995 32.7754 6.94995 32.2777V27.393C6.95496 26.89 7.33104 26.4897 7.78735 26.4897ZM7.78735 49.7013H13.1528C13.6091 49.7013 13.9902 50.107 13.9902 50.6046V55.4893C13.9902 55.987 13.6141 56.3927 13.1528 56.3927H7.78735C7.33104 56.3927 6.94995 55.987 6.94995 55.4893V50.6046C6.95496 50.107 7.33104 49.7013 7.78735 49.7013ZM7.78735 38.0928H13.1528C13.6091 38.0928 13.9902 38.4985 13.9902 38.9961V43.8808C13.9902 44.373 13.6141 44.7842 13.1528 44.7842H7.78735C7.33104 44.7842 6.94995 44.3784 6.94995 43.8808V38.9961C6.95496 38.4985 7.33104 38.0928 7.78735 38.0928ZM31.5556 26.4897H36.916C37.3723 26.4897 37.7484 26.8954 37.7484 27.393V32.2777C37.7484 32.7699 37.3723 33.1811 36.916 33.1811H31.5556C31.0993 33.1811 30.7182 32.7754 30.7182 32.2777V27.393C30.7182 26.89 31.0943 26.4897 31.5556 26.4897ZM31.5556 38.0928H36.916C37.1516 38.0928 37.3673 38.201 37.5227 38.3741C34.7046 39.2233 32.2626 40.7055 30.7232 42.7881V38.9961C30.7182 38.4985 31.0943 38.0928 31.5556 38.0928ZM19.6715 26.4897H25.0369C25.4932 26.4897 25.8743 26.8954 25.8743 27.393V32.2777C25.8743 32.7699 25.4982 33.1811 25.0369 33.1811H19.6715C19.2152 33.1811 18.8341 32.7754 18.8341 32.2777V27.393C18.8341 26.89 19.2101 26.4897 19.6715 26.4897ZM19.6715 49.7013H25.0369C25.4932 49.7013 25.8743 50.107 25.8743 50.6046V55.4893C25.8743 55.987 25.4982 56.3927 25.0369 56.3927H19.6715C19.2152 56.3927 18.8341 55.987 18.8341 55.4893V50.6046C18.8341 50.107 19.2101 49.7013 19.6715 49.7013ZM19.6715 38.0928H25.0369C25.4932 38.0928 25.8743 38.4985 25.8743 38.9961V43.8808C25.8743 44.373 25.4982 44.7842 25.0369 44.7842H19.6715C19.2152 44.7842 18.8341 44.3784 18.8341 43.8808V38.9961C18.8341 38.4985 19.2101 38.0928 19.6715 38.0928ZM7.08032 6.66434H37.613C38.0743 6.66434 38.4955 6.8699 38.7964 7.19446C38.8214 7.22151 38.8415 7.24855 38.8666 7.2756C39.1273 7.59475 39.2878 8.01668 39.2878 8.47107V18.7651C39.2878 19.2628 39.1022 19.7117 38.7964 20.0417L38.7913 20.0471C38.4905 20.3717 38.0693 20.5772 37.6079 20.5772H7.08032C6.619 20.5772 6.19779 20.3717 5.89693 20.0471C5.87185 20.0201 5.84678 19.993 5.82672 19.966C5.56598 19.6468 5.40552 19.2249 5.40552 18.7705V8.47107C5.40552 7.97882 5.59606 7.52984 5.89693 7.19987L5.90194 7.19446C6.20782 6.8699 6.62401 6.66434 7.08032 6.66434ZM37.3973 8.70908H7.30096V18.5325H37.3973V8.70908ZM53.5036 58.4644C53.8245 59.0487 54 59.6653 54 60.3036C54 63.7061 49.121 66.4649 43.1037 66.4649C37.0865 66.4649 32.2075 63.7061 32.2075 60.3036C32.2075 59.6653 32.383 59.0432 32.7039 58.4644C34.0878 60.969 38.2247 62.7865 43.1037 62.7865C47.9877 62.7865 52.1196 60.9744 53.5036 58.4644ZM43.1037 43.3344C48.0479 43.3344 52.0594 45.033 52.0594 47.121C52.0594 49.2144 48.0479 50.9076 43.1037 50.9076C38.1595 50.9076 34.148 49.2198 34.148 47.1264C34.148 45.033 38.1595 43.3344 43.1037 43.3344ZM43.1037 42.0795C49.121 42.0795 54 44.8382 54 48.2407C54 51.6432 49.121 54.402 43.1037 54.402C37.0865 54.3966 32.2075 51.6378 32.2075 48.2407C32.2075 44.8382 37.0865 42.0795 43.1037 42.0795ZM53.5387 52.3464C53.8345 52.9036 53.995 53.5041 53.995 54.1153C53.995 57.5178 49.116 60.2766 43.0987 60.2766C37.0814 60.2766 32.2024 57.5178 32.2024 54.1153C32.2024 53.4986 32.3629 52.909 32.6587 52.3464C34.0076 54.8834 38.1696 56.7389 43.0987 56.7389C48.0329 56.7389 52.1998 54.8888 53.5387 52.3464Z" fill="white"/>
</svg>
