<svg width="56" height="52" viewBox="0 0 56 52" fill="none" xmlns="http://www.w3.org/2000/svg">
<path fill-rule="evenodd" clip-rule="evenodd" d="M37.931 25.0306H51.6709C53.5333 25.0306 55.0588 26.3331 55.0588 27.9232V39.7809C55.0588 41.371 53.5333 42.6735 51.6709 42.6735H37.931C32.2497 42.6735 27.5988 38.7026 27.5988 33.8521C27.6037 28.9973 32.2448 25.0306 37.931 25.0306ZM22.3534 8.5127L24.6021 10.3269L29.471 6.11071C29.902 5.73857 30.1694 5.44255 30.6994 5.90349L32.4132 7.40474C32.9778 7.87838 32.9481 8.15748 32.4181 8.60151L25.5828 14.1075C24.4634 15.0463 24.6566 15.1013 23.5223 14.1413L19.4707 10.9316C19.2329 10.7117 19.2577 10.4918 19.5202 10.2719L21.5114 8.50848C21.8036 8.24206 22.0414 8.25897 22.3534 8.5127ZM5.43852 11.1008H14.2055C14.1907 10.8893 14.1808 10.6779 14.1808 10.4622C14.1857 4.68558 19.6688 0 26.4397 0C33.2057 0 38.6937 4.68558 38.6937 10.4622C38.6937 10.6737 38.6838 10.8851 38.6739 11.0965L41.8984 11.0923C45.1922 11.0881 47.8867 13.2913 47.8867 16.1035V16.9408C49.5113 17.8585 50.5862 19.4316 50.5862 21.2078V23.0515H46.7822V21.8209C46.7822 20.4973 45.5142 19.4189 43.9688 19.4189H8.97504V16.7421C8.97504 16.3869 9.31681 16.0951 9.73287 16.0951H16.1125C15.6915 15.5368 15.3348 14.9406 15.0426 14.3147H6.2855C5.19582 14.3147 4.30921 15.0759 4.30921 16.002V46.7163C4.30921 47.6466 5.20077 48.4036 6.2855 48.4036H44.7712C45.8609 48.4036 46.7475 47.6424 46.7475 46.7163V44.7837H50.6505V47.9765H50.6406C50.6258 50.1839 47.8669 51.9643 45.1427 51.9643H5.42366C2.44189 51.9601 0 49.8752 0 47.3295V15.7441C0 13.1898 2.44684 11.1008 5.43852 11.1008ZM37.8319 14.3105C37.5397 14.9363 37.183 15.5326 36.762 16.0908H44.5879C44.8059 16.0908 45.0189 16.0993 45.2318 16.1204V15.9978C45.2318 15.0674 44.3403 14.3105 43.2556 14.3105H37.8319ZM38.451 28.2615H50.6406V39.4426H38.451C34.8501 39.4426 31.903 36.9264 31.903 33.8521C31.903 30.7734 34.8501 28.2615 38.451 28.2615ZM41.4477 31.9998C42.681 31.9998 43.6815 32.854 43.6815 33.907C43.6815 34.96 42.681 35.8143 41.4477 35.8143C40.2143 35.8143 39.2138 34.96 39.2138 33.907C39.2138 32.854 40.2143 31.9998 41.4477 31.9998Z" fill="white"/>
</svg>
