<svg width="54" height="37" viewBox="0 0 54 37" fill="none" xmlns="http://www.w3.org/2000/svg">
<g clip-path="url(#clip0_207_503)">
<path fill-rule="evenodd" clip-rule="evenodd" d="M22.2235 8.08506C17.8992 4.84632 13.6234 4.13182 9.20247 5.36809C10.1693 2.88145 11.6239 1.25033 13.3333 0.484128C15.7547 -0.601719 19.7186 0.169186 21.2786 2.4913C22.0784 3.67586 22.4783 5.4339 22.2235 8.08506ZM36.7034 26.0039C36.5848 25.4774 36.8924 24.9509 37.3846 24.824C37.8768 24.6971 38.369 25.0262 38.4876 25.5526C38.7249 26.6197 39.1336 27.447 39.6785 28.044C40.2367 28.6503 40.953 29.0405 41.8055 29.2191C42.3021 29.3225 42.6229 29.8349 42.5262 30.3661C42.4295 30.8973 41.9505 31.2404 41.4539 31.137C40.241 30.8784 39.1995 30.3097 38.3778 29.4118C37.5911 28.5563 37.0199 27.4282 36.7034 26.0039ZM5.95052 26.0039C5.83186 25.4774 6.13948 24.9509 6.63167 24.824C7.12386 24.6971 7.61604 25.0262 7.7347 25.5526C7.972 26.6197 8.38069 27.447 8.92561 28.044C9.48372 28.6503 10.2 29.0405 11.0526 29.2191C11.5491 29.3225 11.87 29.8349 11.7733 30.3661C11.6766 30.8973 11.1976 31.2404 10.701 31.137C9.48812 30.8784 8.44661 30.3097 7.62483 29.4118C6.83821 28.5563 6.26692 27.4282 5.95052 26.0039ZM26.9388 22.4267C28.1693 22.4267 29.1668 23.4655 29.1668 24.7441C29.1668 26.0227 28.1693 27.0615 26.9388 27.0615C25.7083 27.0615 24.7108 26.0227 24.7108 24.7441C24.7108 23.4655 25.7083 22.4267 26.9388 22.4267ZM11.7161 16.2501C16.1107 16.2501 19.6746 19.9542 19.6746 24.5279C19.6746 29.0969 16.1107 32.8057 11.7161 32.8057C7.32161 32.8057 3.75765 29.1016 3.75765 24.5279C3.75765 19.9542 7.31722 16.2501 11.7161 16.2501ZM42.4691 16.2501C46.8636 16.2501 50.4276 19.9542 50.4276 24.5279C50.4276 29.0969 46.8636 32.8057 42.4691 32.8057C38.0745 32.8057 34.5106 29.1016 34.5106 24.5279C34.5106 19.9542 38.0701 16.2501 42.4691 16.2501ZM31.7772 8.08506C36.1014 4.84632 40.3773 4.13182 44.7938 5.36809C43.827 2.88145 42.3724 1.25033 40.6629 0.484128C38.2415 -0.601719 34.2777 0.169186 32.722 2.4913C31.9222 3.67586 31.5223 5.4339 31.7772 8.08506ZM47.2723 8.17907C45.7694 6.52445 43.3348 5.77705 39.9642 5.93687C36.1453 6.13899 32.1112 7.84533 30.8148 11.714C29.7293 9.1662 24.2713 9.1662 23.1903 11.714C21.8939 7.84533 17.8597 6.13429 14.0408 5.93687C10.6702 5.77705 8.24007 6.52915 6.73274 8.17907C4.61458 11.2157 0.422197 19.1504 0.0706341 23.0284C-1.36198 38.7661 19.7406 42.7147 23.1243 26.4645C25.0448 30.1075 28.9559 30.1075 30.8763 26.4645C34.2601 42.7194 55.3626 38.7661 53.93 23.0284C53.5784 19.1504 49.3861 11.2157 47.2723 8.17907Z" fill="white"/>
</g>
<defs>
<clipPath id="clip0_207_503">
<rect width="54" height="36.9" fill="white"/>
</clipPath>
</defs>
</svg>
