<svg width="52" height="62" viewBox="0 0 52 62" fill="none" xmlns="http://www.w3.org/2000/svg">
<path fill-rule="evenodd" clip-rule="evenodd" d="M26.0609 10.7572V26.6659H34.1034C34.1238 26.6652 34.1442 26.6686 34.1632 26.6759C34.1823 26.6832 34.1997 26.6942 34.2144 26.7084C34.229 26.7225 34.2407 26.7394 34.2487 26.7581C34.2566 26.7768 34.2607 26.7969 34.2607 26.8172V28.5479C34.2607 28.5682 34.2566 28.5883 34.2487 28.607C34.2407 28.6257 34.229 28.6426 34.2144 28.6567C34.1997 28.6708 34.1823 28.6819 34.1632 28.6892C34.1442 28.6965 34.1238 28.6999 34.1034 28.6992H16.4098C16.3894 28.6999 16.3691 28.6965 16.35 28.6892C16.331 28.6819 16.3136 28.6708 16.2989 28.6567C16.2842 28.6426 16.2726 28.6257 16.2646 28.607C16.2566 28.5883 16.2525 28.5682 16.2525 28.5479V26.8172C16.2525 26.7969 16.2566 26.7768 16.2646 26.7581C16.2726 26.7394 16.2842 26.7225 16.2989 26.7084C16.3136 26.6942 16.331 26.6832 16.35 26.6759C16.3691 26.6686 16.3894 26.6652 16.4098 26.6659H24.4524V10.7673C24.1024 10.6491 23.7837 10.4538 23.5201 10.1961C23.2565 9.93839 23.0549 9.62483 22.9301 9.27881H17.856V10.0457C17.856 10.0859 17.8399 10.1244 17.8114 10.1528C17.7828 10.1812 17.7441 10.1971 17.7037 10.1971H16.4098C16.3894 10.1978 16.3691 10.1944 16.35 10.1871C16.331 10.1798 16.3136 10.1687 16.2989 10.1546C16.2842 10.1405 16.2726 10.1236 16.2646 10.1049C16.2566 10.0861 16.2525 10.066 16.2525 10.0457V9.27881H14.9586C14.9366 9.28017 14.9146 9.27721 14.8937 9.27008C14.8729 9.26295 14.8537 9.2518 14.8372 9.23727C14.8207 9.22274 14.8072 9.20511 14.7976 9.1854C14.7879 9.16569 14.7823 9.14428 14.781 9.1224V7.82568C14.7823 7.8038 14.7879 7.78239 14.7976 7.76268C14.8072 7.74297 14.8207 7.72534 14.8372 7.71081C14.8537 7.69628 14.8729 7.68513 14.8937 7.678C14.9146 7.67087 14.9366 7.6679 14.9586 7.66927H22.9555C23.1263 7.20358 23.437 6.80139 23.8455 6.51721C24.2539 6.23303 24.7404 6.08061 25.2389 6.08061C25.7374 6.08061 26.2238 6.23303 26.6323 6.51721C27.0407 6.80139 27.3514 7.20358 27.5222 7.66927H35.5546C35.5764 7.6672 35.5983 7.66951 35.6191 7.67606C35.64 7.68261 35.6592 7.69327 35.6758 7.7074C35.6924 7.72154 35.7059 7.73885 35.7156 7.7583C35.7253 7.77776 35.731 7.79896 35.7322 7.82064V9.11735C35.7309 9.13923 35.7253 9.16064 35.7157 9.18035C35.7061 9.20007 35.6926 9.21769 35.6761 9.23223C35.6596 9.24676 35.6404 9.25791 35.6195 9.26504C35.5987 9.27216 35.5766 9.27513 35.5546 9.27376H34.0984V10.0407C34.0984 10.061 34.0943 10.0811 34.0863 10.0998C34.0783 10.1185 34.0667 10.1354 34.052 10.1495C34.0373 10.1637 34.0199 10.1747 34.0009 10.182C33.9818 10.1893 33.9615 10.1927 33.9411 10.1921H32.637C32.6166 10.1927 32.5962 10.1893 32.5772 10.182C32.5581 10.1747 32.5407 10.1637 32.5261 10.1495C32.5114 10.1354 32.4997 10.1185 32.4918 10.0998C32.4838 10.0811 32.4797 10.061 32.4797 10.0407V9.27881H27.5425C27.4208 9.61878 27.2247 9.92769 26.9685 10.1833C26.7124 10.4389 26.4024 10.6349 26.0609 10.7572ZM14.4258 35.9447C14.5122 35.858 14.6149 35.7892 14.7281 35.7423C14.8414 35.6954 14.9628 35.6712 15.0855 35.6712C15.2081 35.6712 15.3296 35.6954 15.4428 35.7423C15.556 35.7892 15.6588 35.858 15.7451 35.9447C15.9211 36.1222 16.0198 36.3614 16.0198 36.6107C16.0198 36.8599 15.9211 37.0992 15.7451 37.2767L14.1417 38.8913L15.7451 40.5008C15.9205 40.6766 16.0189 40.9142 16.0189 41.1618C16.0189 41.4094 15.9205 41.647 15.7451 41.8228C15.6596 41.9099 15.5574 41.9791 15.4445 42.0264C15.3317 42.0736 15.2105 42.098 15.088 42.098C14.9656 42.098 14.8444 42.0736 14.7315 42.0264C14.6187 41.9791 14.5165 41.9099 14.4309 41.8228L12.8376 40.2183L11.2393 41.8228C11.1533 41.91 11.0506 41.9793 10.9374 42.0267C10.8241 42.074 10.7025 42.0984 10.5796 42.0984C10.4568 42.0984 10.3351 42.074 10.2219 42.0267C10.1086 41.9793 10.006 41.91 9.91998 41.8228C9.74275 41.6459 9.64323 41.4064 9.64323 41.1567C9.64323 40.9071 9.74275 40.6676 9.91998 40.4907L11.5183 38.8812L9.91998 37.2666C9.75271 37.0902 9.66105 36.8559 9.66442 36.6134C9.66778 36.371 9.7659 36.1393 9.938 35.9675C10.1101 35.7958 10.3427 35.6973 10.5865 35.693C10.8303 35.6888 11.0663 35.779 11.2443 35.9447L12.8376 37.5492L14.4309 35.9396L14.4258 35.9447ZM3.0445 2.71452C2.95872 2.71312 2.87578 2.745 2.81325 2.8034C2.75073 2.86181 2.71355 2.94213 2.7096 3.02734V58.9626C2.71091 59.0451 2.74447 59.1239 2.80319 59.1823C2.86191 59.2407 2.94117 59.2741 3.0242 59.2754H48.9758C49.0588 59.2741 49.1381 59.2407 49.1968 59.1823C49.2555 59.1239 49.2891 59.0451 49.2904 58.9626V3.02734C49.2879 2.94518 49.2539 2.86707 49.1954 2.80895C49.137 2.75082 49.0584 2.71705 48.9758 2.71452C34.0527 2.71452 17.9676 2.71452 3.0242 2.71452H3.0445ZM3.0445 62C2.23705 62 1.46267 61.6811 0.891712 61.1133C0.320758 60.5456 0 59.7756 0 58.9727L0 3.02734C0 2.22444 0.320758 1.45443 0.891712 0.886688C1.46267 0.318951 2.23705 0 3.0445 0L48.9555 0C49.763 0 50.5373 0.318951 51.1083 0.886688C51.6792 1.45443 52 2.22444 52 3.02734V58.9676C52 59.7705 51.6792 60.5405 51.1083 61.1083C50.5373 61.676 49.763 61.995 48.9555 61.995L3.0445 62ZM41.4102 52.3529C41.7611 52.3317 42.0907 52.1781 42.3316 51.9236C42.5726 51.669 42.7068 51.3326 42.7068 50.983C42.7068 50.6334 42.5726 50.297 42.3316 50.0424C42.0907 49.7879 41.7611 49.6343 41.4102 49.6131H23.0773C22.7264 49.6343 22.3968 49.7879 22.1559 50.0424C21.9149 50.297 21.7808 50.6334 21.7808 50.983C21.7808 51.3326 21.9149 51.669 22.1559 51.9236C22.3968 52.1781 22.7264 52.3317 23.0773 52.3529H41.4153H41.4102ZM41.4102 40.2183C41.5982 40.2296 41.7865 40.2026 41.9635 40.1389C42.1406 40.0752 42.3026 39.9761 42.4398 39.8478C42.5769 39.7195 42.6861 39.5646 42.7608 39.3927C42.8355 39.2209 42.874 39.0356 42.874 38.8484C42.874 38.6612 42.8355 38.4759 42.7608 38.304C42.6861 38.1322 42.5769 37.9773 42.4398 37.849C42.3026 37.7207 42.1406 37.6216 41.9635 37.5579C41.7865 37.4942 41.5982 37.4672 41.4102 37.4785H23.0773C22.7264 37.4997 22.3968 37.6533 22.1559 37.9078C21.9149 38.1624 21.7808 38.4988 21.7808 38.8484C21.7808 39.198 21.9149 39.5344 22.1559 39.789C22.3968 40.0435 22.7264 40.1971 23.0773 40.2183H41.4102ZM9.95043 50.9149C9.85211 50.7827 9.78178 50.632 9.74369 50.472C9.7056 50.312 9.70055 50.1459 9.72883 49.9839C9.75712 49.8219 9.81815 49.6673 9.90825 49.5294C9.99835 49.3915 10.1156 49.2732 10.253 49.1817C10.3904 49.0902 10.545 49.0273 10.7075 48.9969C10.87 48.9665 11.0371 48.9692 11.1985 49.0048C11.36 49.0404 11.5125 49.1082 11.6468 49.2041C11.7811 49.3 11.8945 49.422 11.9801 49.5627L12.6854 50.5415L15.324 47.3426C15.5338 47.1068 15.8275 46.9612 16.1432 46.9364C16.4589 46.9115 16.772 47.0094 17.0165 47.2095C17.2611 47.4095 17.4181 47.6961 17.4544 48.0089C17.4908 48.3217 17.4037 48.6363 17.2116 48.8866L13.5582 53.3065C13.4741 53.4127 13.375 53.5062 13.2639 53.584C12.9938 53.7632 12.6634 53.8288 12.3448 53.7664C12.0262 53.704 11.7455 53.5187 11.564 53.251L9.98087 50.9149H9.95043ZM33.7279 11.0549L38.9188 20.1823C38.9618 20.2577 38.9845 20.3428 38.9848 20.4295V20.4598C38.9848 22.6243 36.4477 24.3802 33.2662 24.3802C30.0847 24.3802 27.5984 22.6647 27.5476 20.5304C27.5423 20.4919 27.5423 20.4529 27.5476 20.4144C27.5488 20.3194 27.577 20.2267 27.6288 20.147L32.9212 11.0649C32.9522 11.0104 32.9939 10.9624 33.0437 10.924C33.0935 10.8855 33.1505 10.8572 33.2114 10.8408C33.2722 10.8244 33.3358 10.8201 33.3983 10.8283C33.4609 10.8364 33.5212 10.8569 33.5757 10.8883C33.6566 10.9339 33.722 11.0024 33.7635 11.0851L33.7279 11.0549ZM33.7279 13.0327V19.9149H37.635L33.7279 13.0479V13.0327ZM32.845 19.9149V13.0579L28.8517 19.9149H32.845ZM17.4703 11.07L22.6409 20.1823C22.6859 20.2567 22.7071 20.3429 22.7018 20.4295V20.4598C22.7018 22.6243 20.1647 24.3802 16.9832 24.3802C13.8017 24.3802 11.3154 22.6647 11.2596 20.5304C11.2568 20.4935 11.2568 20.4564 11.2596 20.4194C11.2598 20.3228 11.288 20.2282 11.3407 20.147L16.6331 11.0649C16.7011 10.9604 16.8055 10.8845 16.9264 10.8519C17.0472 10.8193 17.1759 10.8323 17.2877 10.8883C17.3671 10.9357 17.4321 11.0037 17.4754 11.0851L17.4703 11.07ZM17.4703 13.0479V19.9149H21.3774L17.4703 13.0479ZM16.5671 19.9149V13.0579L12.5738 19.9149H16.5671ZM25.2439 7.42708C25.4539 7.42608 25.6594 7.48708 25.8345 7.60235C26.0096 7.71761 26.1463 7.88195 26.2273 8.07455C26.3084 8.26715 26.3301 8.47934 26.2898 8.68423C26.2494 8.88911 26.1488 9.07748 26.0007 9.22547C25.8526 9.37345 25.6636 9.47439 25.4578 9.51549C25.2519 9.55659 25.0384 9.536 24.8444 9.45634C24.6503 9.37667 24.4844 9.24152 24.3676 9.06799C24.2509 8.89447 24.1885 8.69039 24.1885 8.48161C24.1879 8.34336 24.2147 8.20635 24.2674 8.07844C24.3201 7.95053 24.3978 7.83424 24.4959 7.73625C24.5939 7.63826 24.7105 7.56051 24.8389 7.50745C24.9673 7.45439 25.1049 7.42708 25.2439 7.42708Z" fill="white"/>
</svg>
