<svg width="20" height="20" viewBox="0 0 20 20" fill="none" xmlns="http://www.w3.org/2000/svg">
<g clip-path="url(#clip0_487_49)">
<g clip-path="url(#clip1_487_49)">
<mask id="mask0_487_49" style="mask-type:luminance" maskUnits="userSpaceOnUse" x="-1" y="-1" width="21" height="21">
<path d="M20 -1H-1V20H20V-1Z" fill="white"/>
</mask>
<g mask="url(#mask0_487_49)">
<path d="M12.1863 -0.116211H6.93631V1.63379H12.1863V-0.116211ZM8.68634 11.2588H10.4363V6.00879H8.68634V11.2588ZM15.7126 5.46629L16.9551 4.22379C16.5788 3.77754 16.1676 3.35754 15.7213 2.99004L14.4788 4.23254C13.1226 3.14754 11.4163 2.50004 9.56134 2.50004C5.21256 2.50004 1.68631 6.02629 1.68631 10.375C1.68631 14.7238 5.20381 18.25 9.56134 18.25C13.9188 18.25 17.4363 14.7238 17.4363 10.375C17.4363 8.52878 16.7888 6.82254 15.7126 5.46629ZM9.56134 16.5088C6.17506 16.5088 3.43631 13.77 3.43631 10.3838C3.43631 6.99754 6.17506 4.25879 9.56134 4.25879C12.9476 4.25879 15.6863 6.99754 15.6863 10.3838C15.6863 13.77 12.9476 16.5088 9.56134 16.5088Z" fill="#0077FF"/>
</g>
</g>
</g>
<defs>
<clipPath id="clip0_487_49">
<rect width="20" height="20" fill="white"/>
</clipPath>
<clipPath id="clip1_487_49">
<rect width="21" height="21" fill="white" transform="translate(-1 -1)"/>
</clipPath>
</defs>
</svg>
